<svg version="1" xmlns="http://www.w3.org/2000/svg" width="2746.667" height="2746.667" viewBox="0 0 2060.000000 2060.000000"><path d="M993.5.6c-3.3.2-14.5.8-25 1.4-96.1 5.4-199.2 26.7-290.4 59.9-166.9 60.9-312.7 161.8-429.8 297.6C135.7 490 56.4 651.4 21.6 820.7 6.4 894.5.5 953 .5 1030c0 46.1.8 63.8 4.6 101 19.6 195.5 92.2 377.3 212.7 532.3 25.5 32.8 47.8 58 80.8 91.3 28 28.2 67.5 64.4 70.3 64.4.4 0 1.3-1.9 2-4.3.7-2.3 4.3-10.7 8.1-18.7 3.7-8 8-17.4 9.5-21 4.3-10.3 18.4-36.8 23.7-44.7 2.6-3.9 4.8-7.4 4.8-7.7 0-1.4 17.6-28.7 22.4-34.7 1.2-1.4 3.4-4.3 5.1-6.5 3.4-4.5 6.9-8 18.3-18.5 6.3-5.9 9-7.8 11.8-8.1 6.8-.8 6.5 3.7-.6 12.2-2.2 2.6-8 11.3-13 19.4-5 8.1-10.6 16.8-12.4 19.4-6.3 8.8-27.4 47.5-29.1 53.2-.7 2.2-3.6 8.9-12 27.5-1.5 3.3-4.3 10.7-6.2 16.5-6.2 19.2-10.3 32.6-10.3 33.8 0 1.6 38.8 31.2 40.9 31.2.8 0 6.5-23.9 8-33.5 2.6-16.3 9.4-53.5 11.5-62.5 6-25.8 24.3-70.2 36.6-88.5 1.5-2.2 4-6.7 5.7-10 14.1-27.9 22.3-43.2 26.8-50 2.9-4.4 7.7-11.8 10.8-16.5 6.3-9.7 13.6-17.9 18.7-20.9 1.9-1.2 3.8-2.1 4.3-2.1 2.7 0-1.2 10.6-13.3 35.5-5 10.5-9.9 20.8-10.8 23-2.5 6.4-11.2 23.4-15.5 30.5-2.2 3.6-5.7 10.5-7.7 15.5-4.4 10.6-13.1 30.3-16.1 36.1-2.6 5.2-5.9 17-12 42.4-4.8 20.1-5.5 24.8-8.4 58-1.4 15.3-3.8 28.3-9.6 51.8-2.8 11.1-3.9 9.4 14.1 20.9 62.7 39.9 124.7 70.9 194 96.8 13.8 5.2 27.2 9.6 27.8 9.1.1-.2-1.9-2.8-4.6-5.7-2.7-3-6.8-8.1-9.2-11.4-2.4-3.3-4.7-6.2-5-6.5-.4-.3-2.4-3.1-4.5-6.4-2-3.2-5.2-7.5-6.9-9.5-1.8-2-4.8-5.9-6.7-8.6-1.9-2.8-5.3-7.6-7.7-10.7-2.3-3.2-5.6-8.1-7.3-11-1.7-2.9-3.8-6-4.5-6.8-2.5-2.6-12.1-16.6-14.5-21.1-1.3-2.4-2.7-4.6-3-4.9-.3-.3-3.2-4.6-6.4-9.5-6.4-9.7-19.2-34.4-25.4-49-6-13.9-14-38.7-16.3-50.8-2.1-10.7-2.2-11.2-.5-21.6 3.3-21.1 7-36.3 10.8-44.9 1-2.3 1.9-4.9 1.9-5.6 0-.7 1.8-5.3 4-10.2 2.3-4.9 4.5-9.8 5-10.9 7.1-15.9 25.3-51.3 29.9-58 6-8.9 6.2-10 6.6-44.5.3-21.6.9-34 1.9-39.5.8-4.4 2.2-15 3.1-23.5.9-8.5 2.3-20.7 3.1-27 3.1-24 7.5-65.9 9.4-89.5.5-6.1 1.3-16.2 1.9-22.5 2.6-29.9 3.2-40.2 3.6-62.5.4-24 .9-29.4 2.7-32.8 1.2-2.2 2.6-1.8 5 1.4 1.6 2.1 2.7 7.5 5.5 25.6.3 1.8.9 3.3 1.4 3.3.5 0 .9 1 .9 2.2.1 1.3.2 4.1.4 6.3.1 2.2.3 6.6.4 9.9.2 5.7.3 5.8 2.7 5.2 2.3-.6 2.5-.4 1.9 1.9-.4 1.6 0 3.9.9 5.8 1.7 3.6 2.7 7 5.8 20.1 1.2 5 2.8 9.6 3.6 10.4.8.8 1.2 2.1.9 2.9-.7 1.7 2.5 7.8 5.4 10.5 1.5 1.4 2 2.7 1.6 4.4-.4 1.4 0 3.4.8 4.7.7 1.2 1.7 3.9 2 5.9.5 2.6 1.1 3.6 2.1 3.2 2-.8 5.8 5.5 4.3 7.3-.7.9-.6 2 .6 3.8.9 1.4 1.4 2.5 1 2.5-.4 0-.1.7.6 1.5.7.9 1 1.8.7 2.1-.3.4.6 2.2 2 4.1 2.2 2.8 3.1 3.3 5.3 2.8 2.6-.6 2.8-.3 3.9 4.7.7 2.9 1.2 6.9 1.1 8.9 0 2.8.6 4.4 2.8 6.5 2.5 2.6 6.1 9 6.6 11.8.6 3.1 1.8 5.5 3.2 6 .8.3 1.3.2.9-.3-.8-1.4 1.8-1.9 3.8-.7 1.2.8 2.2.8 3.7-.1 2.3-1.5 2.6-1.1 3.5 5.2 1 7.1 4.5 13.1 7.3 12.8 1.2-.2 2.2.1 2.2.5 0 .5.9 1.8 2 2.9 1.3 1.4 2 3.9 2.2 7.2.3 4.2.6 5.1 2.6 5.6 2.3.6 2.9 2 1.2 3-1.5 1-1.2 3.5.5 3.5.8 0 1.5.8 1.5 1.7 0 1 1.6 2.7 3.7 3.8 3.5 1.9 3.6 2.2 3.8 8 .1 6.6.8 8.5 3.1 8.5.9 0 3.5 1.9 6 4.2 4.6 4.5 5.3 7.2 3.4 12.3-.8 2.2-.6 2.9 1.6 4.7 2.2 2 2.4 2.8 1.8 6.2l-.6 3.9 4.2-.6 4.2-.5-.3 4.6c-.5 9.2-.6 9.1 5.6 8.9 4.5-.2 5.5-.5 5.5-2 0-.9.4-1.7.9-1.7 1.7 0 2.3 4 1 5.8-.7.9-.9 1.4-.5 1 .5-.5 1.7.6 2.7 2.2 1.9 3 2.6 3.4 6.6 3 1.6-.1 2.6.6 3.3 2.5.6 1.6 1.7 2.6 2.7 2.4 4.4-.4 5.3.1 5.3 3 0 1.7.5 3.3 1 3.6.6.4 1 1.2.9 1.8-.6 5.2 2.5 9.7 6.7 9.7 1.7 0 2.8.7 3.1 2 .3 1.1 1 2 1.5 2s.7-.9.3-1.9c-.7-2.4 1.1-3.7 3-2.1 1.2 1 1.5.9 1.5-.4 0-1 .5-1.4 1-1.1 1.7 1.1 1.1 4.2-1.2 5.7l-2.3 1.5 2.9 3.8c2.6 3.4 3.2 3.7 6.6 3.1 4.4-.7 9.9 1.6 10.1 4.2.1.9.3 3.2.5 5 .2 2-.1 3.2-.9 3.3-.6.1-1.9.2-2.7.3-.9 0-1.6 1.3-1.8 3-.2 1.8 0 2.6.7 2.1.6-.3 1.1 0 1.1.8s1.1 2.5 2.4 3.8c1.2 1.3 2.9 3.5 3.5 4.7.7 1.3 1.5 2.1 1.9 1.8.3-.4 1.8.5 3.3 2 1.5 1.4 3.1 2.4 3.6 2.2.4-.1.9.7 1.1 1.9.2 1.4 1 2.3 2.1 2.3 1.8 0 4.1 1.8 4.1 3.3 0 .7-2.4.5-7.7-.6-.7-.2-1.9-1.1-2.6-2-1.1-1.6-1.4-1.6-3.4-.2-1.9 1.3-2.1 2-1.2 4.3.6 1.5 1.7 3.4 2.4 4.2 2.1 2.3 1.2 5.3-2 6.3-2.1.7-3.1.6-3.9-.4-.6-.8-2.4-2.1-3.9-2.9-2.3-1.1-3-1.2-3.6-.1-.7 1-1.3 1-2.9.2-1.4-.7-2.3-.8-2.7-.1-1.1 1.8-4.3 1.1-7.4-1.6-1.7-1.4-3.1-3.2-3.1-4 0-.8-.4-1.4-1-1.4-.5 0-1-.4-1-.8 0-1.6-8.9-10.4-10-9.7-.5.3-1 1.9-1 3.4 0 3.5 2.6 8.8 3.3 6.9.4-.9 1.9.1 4.7 2.9 2.2 2.4 4.5 4.3 5 4.3s.7.7.4 1.5c-.7 1.8 5.2 9.5 7.2 9.5 1 0 1.3.7.9 2.3-.4 1.5 0 2.9 1.2 4 1.8 1.6 1.9 1.5 1.5-1.6-.3-3-.2-3.2 3.1-3.4 2.8-.2 3.8.2 5.1 2.2 1.6 2.4 1.6 2.7-.4 5.2-2.7 3.4-2.5 5.7.4 7.3 1.3.7 2.7 2.1 2.9 3.1.3 1.1 1.4 1.9 2.6 1.9 2.5 0 2.8 1.8.5 2.7-1 .3-2.2 0-2.8-.8-.8-1.1-2.2-1.3-4.9-.8-5.5.9-6 1.9-3.7 6.7 2.7 5.5 2.6 6.3-1 5.5-2.5-.5-3-.2-3 1.5 0 1.1.3 2.2.8 2.4.4.1 1.8 1.8 3.1 3.7 1.9 2.7 2.1 3.5 1 4.2-1 .6-.3.9 2.1.9 6.5 0 10.8 1.9 14.2 6.1 1.8 2.3 3.3 4.4 3.3 4.7 0 .3-1.2.9-2.7 1.3-2.3.6-3.6 0-7.7-3.2-2.7-2.1-5.1-3.9-5.4-3.9-.3 0-1.7-1.1-3.1-2.3-3.9-3.6-9.9-5.7-11.9-4.2-2.4 1.7-.4 6.9 4 10.8 1.8 1.6 3.3 3.5 3.3 4.2 0 .7 1.1 1.3 2.4 1.3 1.4 0 3.2.7 4.1 1.6.9.9 2.3 1.6 3.1 1.6.8 0 1.4.9 1.4 2 0 1.7.5 1.9 2.5 1.4 1.5-.4 2.5-.2 2.5.5 0 .6-.7 1.1-1.6 1.1-1.3 0-1.4 1.1-.9 7.2.4 4 1.4 8.3 2.2 9.6 1.6 2.5 5.9 4.6 8 3.8.7-.3 1.3-.1 1.3.4 0 .6.4 1 1 1 .5 0 .1-1.3-.8-3-.9-1.6-2-3-2.4-3-.3 0-1.4-2.2-2.3-5-1.5-4.4-1.5-5.2-.1-6.5.8-.8 2-1.5 2.7-1.5.8 0 1-1.1.6-3.5-.3-1.9-.2-3.5.3-3.5s1.6-.7 2.5-1.6c1.4-1.5 1.8-1.4 4 1 1.4 1.5 2.5 2.9 2.5 3.2 0 .3.7 1.2 1.5 2 .8.9 1.5 1.1 1.5.5 0-.6.6-1.1 1.4-1.1.8 0 1.6-.5 1.8-1.1.7-2.1 6.2.2 9.2 3.7 2.4 2.9 2.5 3.4 1 3.2-3.7-.3-6.4.2-6.4 1.2 0 .5.6.9 1.3.7.7-.1 1.1.6.9 1.9-.2 1.2.4 2.4 1.3 2.7.8.4 1.5 1.3 1.5 2.2 0 1.1 1 1.5 3.5 1.5 1.9 0 3.5.5 3.5 1.1 0 .5.4.8.9.5 1.1-.7.2-4.6-1-4.6-1.3 0-1.1-7.4.3-8.8 1.7-1.7 4.8-1.5 4.8.4 0 1.3-.3 1.4-1.4.5-1.1-.9-1.5-.7-2 1.1-1.1 4.1-.8 5.2.9 3.8 1.3-1 1.5-.9 1.5.9 0 1.4.6 2.1 1.9 2.1 1.1 0 2.9 1.2 4 2.7 1.8 2.5 2 2.6 2.1.8.1-2 .1-2 1.5-.1 1.3 1.7 1.5 1.7 1.5.4 0-2.6 1.7-3 5-1.3 2.9 1.5 4.2 4.5 1.9 4.5-1.5 0-3.9 2.6-3.2 3.4.4.3.1.6-.5.6s-1.6-1-2.3-2.1l-1.1-2.2-2.4 2.7c-3.2 3.4-2.5 9.2 1.3 10.7 1.4.5 2.7 1.8 3 2.9.3 1.1 1.1 2 1.8 2s1.6 1.6 1.9 3.5c.7 3.6 3.7 6.1 6.2 5.1.8-.3 1.4.1 1.4.8 0 .8 1.2 1.7 2.7 2.1 1.5.3 4 2 5.5 3.6 1.6 1.7 3.9 2.9 5.3 2.9s2.5.4 2.5.9 1 1.3 2.3 1.7c1.2.3 2.9 1.2 3.7 1.8.8.7 4.2 2.1 7.5 3.1 3.3 1.1 7 2.6 8.2 3.3 1.7 1 2.6 1.1 4.3.2 2.5-1.4 3.2-.8 5 4 .8 1.9 1.9 3.8 2.4 4.2.7.5.8 1 .1 1.7-.7.7-2 .6-3.9-.4-3.6-1.9-3.6-1.9-3.6 1 0 2 .5 2.4 2.3 2.2 1.6-.1 2.1.3 1.9 1.6-.4 2.3 1.5 4.7 3.7 4.7.9 0 2.5 1 3.6 2.3l2 2.2.3-2.1c.2-1.2 1.2-3 2.3-4 1.7-1.5 2.4-1.6 5.3-.6 1.8.7 4.5 1.2 6.1 1.2 1.6 0 3.6.8 4.5 1.7 2.2 2.3.5 6-3.1 6.8-1.8.4-2.8 1.4-3.2 3-.5 3.1 2 4.1 6.7 2.5 3.4-1.1 8.6-.5 8.6 1 0 .5.7 1.6 1.6 2.4 1.4 1.5 1.4 1.6-.5 1.6-1.8 0-1.9.3-1.1 2.5.5 1.4.7 2.5.3 2.5-.3 0 .2.9 1.3 2.1 1.6 1.8 2.6 2 7.1 1.4 4.7-.6 5.4-.4 7.4 1.9 2.7 3.1 5.5 3.3 6.4.5 1.2-3.7 2.5-.5 1.9 4.5-.6 4.3-.9 4.7-3 4.3-1.7-.3-2.1 0-1.6 1.2.3.9.2 1.3-.3.9-.4-.4-2.1.8-3.8 2.7-2.4 2.7-3.3 3.2-4.4 2.3-1-.8-1.7-.7-2.7.7-1.1 1.5-1.5 1.6-3.4.4-1.9-1.2-2.3-1.1-3.6.6-1.2 1.6-1.6 1.7-3 .6-.9-.7-1.6-1-1.6-.6s-.7.2-1.5-.5c-1.2-1-1.9-1-2.7-.2-1.7 1.7-3.8 1.5-6-.5-1.7-1.5-1.9-1.5-3.8.2s-2.1 1.7-5.3-.8c-3.2-2.4-9.2-3.8-11.2-2.5-.6.3-2.7 0-4.8-.7-2.1-.7-5.3-1.6-7.2-1.9-1.9-.4-3.5-1.1-3.5-1.6 0-.6-.8-1-1.8-1s-2.3-.5-2.9-1.1c-.6-.6-3.7-1.7-6.9-2.5-3.3-.7-6-1.8-6.2-2.3-.2-.5-2.1-.7-4.2-.4-2.6.4-4 .2-4-.6 0-.6-1.5-1.1-3.4-1.1-2 0-4.2-.8-5.2-1.7-1.3-1.3-1.9-1.4-2.2-.5-.7 2.2-1.9 1.3-3.7-2.8-1-2.2-2.2-4-2.8-4-1.1 0 .1 5.4 1.3 5.8.4.2.5 2.1.2 4.4-.3 2.6-.1 3.9.5 3.5.6-.4.8.3.5 1.8-.3 2 0 2.5 1.7 2.5 1.1 0 2.2.3 2.2.7.7 3.7.5 6-.4 7.1-.9 1.1-1.3 1-2.5-.5-1.2-1.7-1.4-1.7-2.3 0-1.2 2-4 2.2-5.7.5-1-1-1.4-1-2.1 0-.4.7-1.5 1-2.5.6-.9-.4-2.4 0-3.4.9-1.2 1.1-2.2 1.3-3.2.7-2.7-1.7-6.7-1.2-7.3 1-1 3.7.3 6 3.3 6 1.5 0 3.3.7 4 1.5.7.8 2.3 1.5 3.6 1.5 2.4 0 2.4 0 .6 3.2-1.5 2.6-2.5 3.2-5.8 3.4-5.6.3-8.2 1.3-8.9 3.4-.7 2.4-3.6 3.4-4.7 1.8-.7-.9-.8-.5-.6 1.3.5 2.7-1.2 4.9-3.7 4.9-.8 0-1.5.5-1.5 1.1 0 .6.6.9 1.3.6 2.5-.9 4.7 1.3 4.7 4.9 0 2 .7 4.3 1.7 5.2 1.6 1.6 1.5 1.7-1 2-2.9.4-3.7 2.6-1.2 3.6.8.3 1.4 0 1.2-.6-.1-.7.7-1.2 1.8-1.3 1.8 0 2 .7 2 6.5 0 5.7-.2 6.5-2 6.9-1.1.2-2.3.8-2.7 1.4-.5.8-.8.7-1.2-.3-.2-.8-.7-2.4-1.2-3.5-.6-1.8-.8-1.8-1.1-.2-.3.9-1.1 1.7-1.9 1.7-2 0-4.2 2.2-3.6 3.8.2.6-.3 1.2-1 1.2-2.2 0-2.9-1.2-1.6-2.7.8-1 .8-1.2-.4-.8-.8.3-2.1 1.7-2.8 3.1-1.2 2.1-1.1 2.6.6 3.9 1 .8 2.5 1.5 3.2 1.5.8 0 1.2 1.6 1.2 4.4 0 3.6.4 4.6 2 5.1 1.3.4 2 1.5 2 3.1 0 2.1.5 2.4 3.6 2.4 2.2 0 3.3.4 2.9 1.1-.4.6.3 1.3 1.5 1.6 1.2.3 1.9 1.1 1.6 1.9-.3.8.1 2 1 2.6 3.3 2.8 5.6 5.4 7 7.9 1.2 2.4 1.1 2.9-.7 5-2.3 2.7-1.9 6.2 1.2 9.5 1.5 1.6 1.6 2.3.6 3.4-1 1-.9 1.1.3.5 2.2-1.3 7.2-.6 9.2 1.2 1.8 1.6 2.6 8.2 1.1 8.4-.5.1-1.8.3-3.1.4-1.2.1-2.4.4-2.6.6-.8.9 1.4 4.9 2.8 4.9.7 0 1.6.9 1.9 2.1.6 2.3 2.7 1.7 2.7-.7 0-.8.7-1.4 1.5-1.4 1.4 0 2 2.9 1.7 7.9-.1 2.3 1.7 6.1 2.9 6.1.7 0 1-1.2.7-3-.3-1.6-.1-3 .3-3s.5-1 .2-2.1c-.5-1.9-.4-2 1.6-.9 1.8.9 2.1 1.7 1.6 3.7-.9 3.9 1.2 8.1 4.3 8.5 1.8.2 2.7.9 2.7 2 0 1 1.7 2.9 3.7 4.3 2 1.3 3.8 2.9 4 3.4.3 1 19.1 2.5 44.6 3.7 13.9.7 20.2.2 33.7-2.8 2.8-.6 5.5-1.5 6.2-2 .7-.5 1.7-.7 2.2-.3 1.2.7 3.8-.5 4.2-2 .2-.6.9-.9 1.6-.7.7.1 2.3-.4 3.6-1.3 1.3-.8 2.7-1.2 3-.8.4.3 1.7-.4 2.9-1.7 2-2.1 2.2-2.2 3.4-.5 1.3 1.7 1.6 1.7 7.6-.4 3.5-1.2 7.3-2.2 8.4-2.2 1.4 0 2.4-.7 2.7-2 .3-1.2 1-1.8 1.5-1.5.5.3 1.6-.1 2.3-1 .8-1 2.1-1.3 3.6-.9 1.6.4 2.3.1 2.3-1 0-.8.9-1.5 2-1.5s2-.7 2-1.5.9-1.5 1.9-1.5c1.1 0 2.1-.4 2.3-1 .2-.5 2.1-1.2 4.3-1.5 2.2-.4 4.5-1.4 5-2.3.6-.9 2.2-2.8 3.7-4.2 1.4-1.5 2.8-3.7 3-5.1.1-1.3 1.3-2.8 2.5-3.4 1.3-.5 2.5-2.2 2.9-4 .9-4.1 1.6-5.2 2.3-3.2.7 2 2.6 1 3.5-2 .5-1.6.1-2.8-1.5-4.4-1.9-1.9-2-2.3-.5-3.1.9-.5 1.6-1.7 1.6-2.8 0-1.1.9-2.1 2.3-2.5 1.2-.3 3.2-1.1 4.5-1.8 1.8-.8 2.8-.8 4.3.1 1.5 1 1.9 1 1.9 0 0-.7 1.4-1.9 3.1-2.7 1.9-.8 3.6-2.6 4.3-4.2 1.2-3.4 2.6-3.8 2.6-.9 0 1.1.5 2 1 2 .6 0 1-.8 1-1.8 0-1.4.8-1.9 3.3-2.1 1.7-.1 3.8-.3 4.5-.3 1.5-.2 1.6-5.4.1-6.4-.6-.3-.9-1.5-.6-2.5.3-1.1.1-1.9-.4-1.9-2.1 0-.7-4.7 2.2-7.4 2.2-2.1 2.9-3.6 2.6-5.3-.5-2.8.8-3 2.2-.4.8 1.4.7 2-.4 2.5-2 .7-1.9 3.6.2 3.6.9 0 2.4-.7 3.3-1.5 1.7-1.5 5-1.1 5 .6 0 .5.6.9 1.4.9 1.7 0 6.6 5.6 6.6 7.6 0 .8.9 1.4 1.9 1.4 1.4 0 2.1.8 2.3 2.7.2 2 .9 2.8 2.3 2.8 1.3 0 1.9.6 1.7 1.8-.2 1 .3 1.7 1.3 1.7 1.5 0 2.1 3.1.8 4.4-1.9 1.9-1.3 5.7 1.4 8.2 2.3 2.2 2.5 2.5.8 2-1.9-.5-2.1-.3-1.7 3 .5 4.5-2.7 8.4-7.1 8.4-1.6 0-4.2.9-5.8 2.1-1.6 1.1-3.4 1.7-4 1.3-.8-.5-.8-.1 0 1.4.6 1.1 2.5 2.3 4.2 2.7 2.3.5 3 1.2 2.8 2.8-.3 3.8.1 4.7 1.6 4.1.8-.4 1.5-.1 1.5.5s-.9 1.1-2 1.1c-2.4 0-3.9 2.9-2 4 .7.4.9 1.3.6 1.9-.4.6-.1 2 .7 3.1.8 1.1 1.2 3.8 1.1 6.5-.3 4.4 1.1 6.1 2.3 2.8.6-1.5.7-1.5 1.4.3 1.1 2.7 1.1 4.6 0 3.9-.5-.3-1.2-.1-1.6.5-.3.5-1.4 1-2.4 1s-2.4.6-3 1.3c-.8 1.1 2.3.9 14.2-.9 29-4.3 31.2-4.8 30.9-6.7-.2-1.5.2-1.6 2.4-1.1 2 .5 3.1.2 4.1-1.1 1.2-1.8 1.3-1.8 1.3-.1 0 1 .6 1.6 1.3 1.3.6-.2 1.1-1.4 1-2.6-.2-1.1.1-2.1.5-2.1s2.7-1.8 5.1-4c2.9-2.6 3.9-4 2.8-4-.9 0-1.7-.4-1.7-.9s.8-.7 1.8-.4c1.7.4 7.2-3.7 7.2-5.4 0-1.7 5.8-3.5 7.9-2.4 1.7 1 2 .7 2.6-2.9.6-3.8 2.5-6.6 2.5-3.8 0 1.9 3.6 4.8 6 4.8 2.6 0 3.6 2 1.2 2.7-1.3.3-1.9 1.3-1.9 2.9 0 3.1 1.3 3.1 2.1-.1.5-1.9 1.3-2.5 3.4-2.5 2.6 0 2.8-.2 2.4-3.4-.3-2.6-1-3.6-2.6-3.9-1.2-.2-.5-.5 1.7-.6 2.4-.1 3.7-.6 3.7-1.5 0-2 2.7-4.1 3.2-2.5.2.7 1 .9 1.6.5.8-.4 1-1.6.6-2.8-.9-2.8 3.2-6.9 6.1-6.2 1.3.3 2.6.1 2.9-.5.5-.7-.2-1.1-1.6-1.1-1.8 0-2-.2-.8-1 2.1-1.3-2.9-1.4-6.4 0-2.2.8-2.6.7-2.6-.9 0-1.2 1.2-2.5 2.9-3.2 3.3-1.5 4.9-4.9 2.3-4.9-1.5 0-1.4-.2.1-1.8 1.5-1.5 1.9-1.5 2.7-.2.7 1.1 1.2 1.2 2 .4.9-.9.9-1.4.1-1.8-2-1.3-1.1-2.3 1.4-1.8 1.4.2 2.5 1.1 2.5 1.8 0 1.7 4.9.9 6.5-1.1.6-.7 2.1-1.5 3.4-2 1.6-.5 2-1 1.1-1.5-.8-.5-.7-.9.5-1.4 3-1.1 4.8-.7 4.1 1-.5 1.3-.1 1.4 2.5.9 2.8-.6 3-.5 2.7 1.7-.2 1.5-1 2.3-2.3 2.3-2.5 0-3.3 3.5-1.1 4.7 2.1 1.2 2.1 2.8 0 2.8-.9 0-2.9.8-4.4 1.7l-2.9 1.7 2.1 1.8c2.5 2.1 5.8 2.4 5.8.4 0-.8-.3-1.6-.7-1.9-.9-.4 1.6.3 3.5 1 .7.3 1.2 0 1-.8-.2-.7.7-1.8 2-2.4 1.2-.5 2.2-1.5 2.2-2.2 0-.7.7-1.3 1.5-1.3.9 0 2.9-.7 4.5-1.5 1.8-.9 3.1-1.1 3.5-.5.3.6.1 1-.4 1-.6 0-1.1.9-1.1 2s-.5 2-1.2 2c-.6 0-.9.2-.6.5.3.3 1.6.1 2.9-.3 1.3-.5 3.1-.6 3.9-.1.8.4 2.4 1 3.5 1.4 1.4.4 1.6.8.7 1.4-.8.5.1 1.2 2.6 2 4.7 1.6 7.3 4.9 4.8 6.3-.9.5-1.6 1.9-1.5 3.1 0 2 .1 2.1.8.3.6-1.5 1-1.6 1.5-.7.5.7 2.4 2 4.3 2.8 3.4 1.4 4.1 1.2 25.9-6.2 35.5-11.9 74.5-27.5 100.7-39.9 7.2-3.5 9.7-5.2 9.7-6.6 0-1-.9-6.5-2-12.2-1-5.7-2.2-12.8-2.6-15.8-.3-3-1.4-8.4-2.5-12-1-3.6-3.4-12.6-5.3-20-3.6-13.7-8-27.6-15.4-47.6-4.8-13-7.4-26.5-10.1-52.9-2.7-25.2-5.4-38.6-11.6-57.5-1.4-4.1-3.4-11.3-4.6-16-1.1-4.7-2.6-10.9-3.3-13.8l-1.4-5.4 2.8 2.7c3.8 3.6 16.8 30.2 19.4 39.9.8 2.8 2.4 8.2 3.6 12.1 1.2 3.8 4.8 18 8.1 31.5 7.4 31.2 13 51.1 15.9 57.5 7.6 16.7 20.1 56.3 28.1 89.3 1.2 5.2 2.8 9.6 3.5 9.9 1.6.6 30.1-14 38.6-19.9l2.6-1.8-2.4-7.8c-1.3-4.2-5.1-15.1-8.5-24.2-3.3-9.1-7.2-20.1-8.5-24.5-1.4-4.4-3.8-10.9-5.5-14.5-4.1-8.8-4.4-9.5-7.2-17.5-1.4-3.9-4.7-12.4-7.5-19s-6.6-16.4-8.6-21.7c-3.1-8.7-21.4-46.6-28.3-58.7-4.5-7.9-18.3-28.2-26.6-39.1-8.9-11.7-11.3-16-10.3-18.5.5-1.4 1.2-1.3 5.8 1.2 5.9 3.1 21.1 17.7 27.9 26.7 2.4 3.3 5.9 7.9 7.7 10.3 14.8 19.8 28.9 44.2 47.7 82.6 15.3 31.5 21.7 45.4 23.9 51.8.8 2.5 4.8 12.9 8.9 23 4.1 10.1 8.7 22.6 10.2 27.7 1.6 5 3.1 9.2 3.5 9.2 1.2 0 18.9-10.9 36.5-22.5 91.8-60.5 177.6-139.8 244.7-226.2 114.3-147 186.3-320.3 209.7-504.3 5.7-44.8 7.5-76 7.5-129 0-53.1-1.7-83.3-7.4-128.5-23.9-188.4-99.5-367.2-217.4-514.5-45.9-57.3-102.8-114.4-159.2-159.6-57.5-46.2-118.4-85.4-182.1-117.3C1367.5 47.3 1236.8 11.8 1095 2 1079.7.9 1005.1-.1 993.5.6zm28.5 398.6c3.6.6 7.1 1.6 7.8 2.2.8.5 5.5.9 10.5.7 8.2-.2 9.4 0 11.5 1.9 1.8 1.7 3.1 2.1 5.6 1.6 2.3-.5 3.7-.2 4.6.9.7.8 1.8 1.5 2.5 1.5s2.4.9 3.7 2c1.4 1 2.8 1.7 3.1 1.3.3-.3 2.2-.2 4.1.1 4.3.8 9.6 5.1 9.6 7.7 0 1.6.8 1.9 4.8 2.1 18.6.6 20.7.9 25.7 3.3 2.7 1.3 5.5 1.9 8.6 1.7 3.2-.3 4.9.1 5.8 1.2.8 1 2.2 1.3 4.1 1 1.5-.4 3.1-.1 3.4.5.9 1.4 7.1 1.4 9.6.1 1.5-.8 2.1-.6 2.9.9.6 1 .8 2.1.4 2.4-.3.4.3.9 1.3 1.3 5.9 1.9 12 4.8 12.7 6.1.5.8 2.1 1.4 3.5 1.3 4.9-.4 5.6-.1 4.3 1.4-.9 1.1-.5 1.5 2.6 2.1 2.1.3 6.5.8 9.8 1 9 .6 25.6 3.6 30 5.5 1.1.5 3.7 1.4 5.7 2 2.1.6 4 1.6 4.3 2.1.4.5 2.1.9 3.8.9 1.8 0 4.8.4 6.7 1 1.9.5 8 1.9 13.5 3.1 5.5 1.2 10.7 2.5 11.6 2.9.9.5 3.8 1 6.5 1.1 2.7.1 5.4.5 5.9.9.6.4 3.7 1.3 7 2s6.6 1.8 7.2 2.3c.7.5 2.4.6 3.7.3 1.4-.3 2.8-.2 3.1.4.3.5 1.6 1 2.7 1 1.2 0 3.8.5 5.7 1.1 2 .7 4.3 1.4 5.1 1.7.8.2 3.3.6 5.5.8 2.2.2 5.6 1.2 7.5 2.1 1.9 1 3.7 1.8 4 1.8.3 0 2.9.9 5.8 1.9 2.9 1 5.6 1.6 5.9 1.3.9-1 10.3 2.4 14.7 5.3 2.4 1.7 4.7 3 5.1 3 .4 0 2.5 1.4 4.7 3.2 6.3 4.9 11 8 13.1 8.4 1.1.2 2.7 1 3.7 1.9.9.8 2.1 1.5 2.7 1.5.6 0 1.3.7 1.7 1.5.3.8 1.1 1.5 1.8 1.5s2.3 2.2 3.6 5c2.7 5.8 9.8 13.6 13.8 15.1 1.6.5 4.4 3 6.3 5.4 1.8 2.5 3.7 4.5 4.1 4.5.4 0 3.1 2.2 5.9 5 2.8 2.7 5.6 5 6.1 5 .6 0 1 .6 1 1.4 0 1.9 3.9 8.6 5.1 8.6.5 0 1.5 1.2 2.3 2.8 1.2 2.3 1.2 3.2.1 5.1-1.4 2.8-.9 5.7 1.1 6.5 2.3.9 1.7 5.1-1 6.5-5.4 2.9-3 14.2 3.3 15.6 1.7.3 3 1 3 1.3-.3 2.2.5 3.2 3.6 4.2 1.9.6 3.5 1.8 3.5 2.6 0 .7 1.2 1.7 2.8 2 3.8 1 5.2 2.3 5.2 5.2 0 1.3.8 3.1 1.8 3.8 1.5 1.2 1.5 1.5.2 2.4-1.2.8-1.2 1.2-.2 1.8.7.5 1.2 1.3 1 1.8-.1.5.3 2.4 1.1 4.1 1.2 2.9 1.1 3.6-.3 5.8-1.4 2.2-1.5 2.6-.2 3.1.8.3 1.8 2 2.1 3.7.4 1.8 1.3 4.2 2.1 5.4.8 1.3 1.2 2.3.9 2.3-.2 0 0 1.2.6 2.7.6 1.6 1.3 5.8 1.6 9.4.5 6.3.4 6.6-1.8 7.3-2.4.6-2.4.6-.4 2.2 1.4 1.2 1.6 1.8.7 2.1-1 .4-1 .8-.1 1.9.7.8.8 2.9.4 5.6-.4 2.4-.7 5.1-.7 6.2.1 1-.6 2.5-1.4 3.3-.9.9-1.4 3.5-1.4 7 0 4.6-.3 5.6-1.9 6-1.1.3-2.2 1.4-2.4 2.5-.4 1.3-1 1.7-1.8 1.2-.8-.4-1-.3-.5.5.4.6.2 1.8-.4 2.6-1.9 2.3-.3 7.2 2.6 7.9 2.8.7 3.2 2.6.6 3.3-2.3.6-4.5 4-3.2 4.8.6.3 1 1.5 1 2.6 0 2.6-2.6 1.9-8.8-2.2-4.7-3.2-8.2-3.8-8.2-1.4 0 .8.6 1.5 1.2 1.5.7 0 .3.7-1 1.5-1.6 1.2-2.7 1.3-4.1.5-1.1-.5-3.6-1-5.5-1s-6.5-1.4-10.1-3.2c-6.3-2.9-6.9-3-11.6-2-4.8 1.2-9.9.2-20.4-3.7-2.2-.9-10.3-.6-15.1.4-2 .4-4.2.2-6-.8-2.1-1-5.6-1.3-13-1.1-5.6.2-10.8.6-11.5.9-.8.2-5.7 0-10.9-.6-12-1.3-32-1.6-38.5-.6-4.5.6-4.7.6-3-.8 1.1-.8 1.6-1.5 1-1.5-.5 0-.3-.5.5-1 2.7-1.8-9.8-1.2-13.3.7-1.8.9-4.9 1.7-6.9 1.8-4.6.3-8.8 2.9-8.8 5.4 0 1.2-1.6 2.9-4.2 4.4-2.4 1.4-5.6 3.9-7.2 5.6-1.9 2-4 3.1-5.6 3.1-1.5 0-3.6.8-4.6 1.8-3.2 3-8 8.5-6.7 7.8 2.4-1.3 2.3 1.3-.2 3.9-1.6 1.8-3 2.5-4.1 2.1-1.2-.5-1.5-.2-1 1 .7 1.8-1.4 5.7-5.1 9.1-1.2 1.2-2.3 3.4-2.3 4.8s-.4 2.5-.9 2.5-1.3.9-1.6 2c-.3 1.1-1.4 2.7-2.3 3.6-1.1 1.2-1.6 3.7-1.8 8.8-.1 3.9-.7 8.4-1.4 10.1-.6 1.6-1.3 6.4-1.5 10.5-.2 4.1-.7 8.8-1.1 10.5-.4 1.6-.8 10.4-.8 19.5 0 17 .7 21.1 5.6 35.3 2.1 6.1 2.6 16.6 1.4 28.6-.4 4.2-.3 6.8.5 7.7.8 1 1 5.3.5 15.2-.4 7.5-.8 14.8-.8 16.2-.2 4.2.6 11 1.2 11 .3 0 .7 2.2.7 5s.8 6.1 1.7 7.5c.9 1.3 1.6 3.3 1.6 4.5 0 1.1.5 2 1 2 .6 0 1 1.1 1 2.4 0 1.4.5 2.8 1 3.1.6.3 1 1.7 1 3s.5 2.7 1 3c.6.3 1 1.7 1 3 0 1.4.9 2.9 2 3.5 2.5 1.3 2.6 5.1.4 12.6-1.1 4-1.2 5.8-.4 7.4.6 1.1 1.4 2 1.8 2 .5 0 .6 1.5.4 3.3-.5 4.4 2.7 10.2 5.7 10.1 1.1 0 2.1.2 2.1.6 0 .4 1 .6 2.3.6 1.7-.1 2.3.5 2.5 2.6.2 1.6.7 2.8 1.1 2.8 1 0 4.2 5.8 4 7.2-.3 1.6.7 4.1 3.2 9 1.4 2.6 1.7 4.3 1.1 5.5-.5 1-.7 2.4-.5 3.1.6 1.7-6.6 1-7.7-.8-.9-1.5-.1-5 1.1-5 .5 0 .9-1.2.9-2.6 0-2.1-.4-2.5-2.2-2.2-2.1.3-5.8-2.7-5.8-4.6 0-2.1-6.2-6.1-8.7-5.7-.7.1-1.3-.3-1.3-.9 0-.5-.5-1-1-1-.6 0-1 .6-.9 1.2.3 2.9-.2 4.6-2.2 6.9-1.1 1.3-2.8 3.4-3.9 4.5-1 1.2-2.1 3.2-2.5 4.4-1.1 3.3-5.5 6.8-9.5 7.5-3.9.7-7.1 3-8.9 6.3-.6 1.2-1.8 2.2-2.7 2.2-2 0-8.7 3.5-10.3 5.4-1.3 1.6-5.5 1.6-9.2.1-.9-.3-3.6.1-6 1s-4.8 1.6-5.4 1.6c-2.9 0-8-1.2-8.8-2-.6-.6-1.7-.7-2.6-.3-1.9.9-3.9.8-6.4-.3-.9-.4-2.3-.2-3 .3-1.4 1.2-5.7.5-5.7-.9 0-.5-.6-.9-1.4-.9-.8 0-2.3-1.3-3.3-3-1.7-2.9-6.1-5.1-11.3-5.7-6.2-.7-8.6-1.1-10.1-1.7-1-.5-2.8.3-4.8 2-2 1.6-3.9 2.4-5.1 2.1-1.1-.3-2.2-.1-2.5.3-.3.5-1.3.9-2.3.8-3.3-.1-11.6 2-12 3-.2.7-1.6.6-4-.2-3-1.1-4.4-1.1-7.2 0-1.9.7-4.5 1.3-5.6 1.3-1.2.1-2.7.7-3.3 1.5-.7.8-3.8 1.8-6.9 2.2-4.9.6-6.2 1.2-9.4 4.5-2.1 2.2-4.1 3.9-4.5 3.9-.9.1-3.8 6.3-4.7 10.3-.4 1.5-1.3 3-2.2 3.4-.8.3-2.8 1.9-4.4 3.5-1.7 1.6-3.4 2.7-3.9 2.3-.6-.3-1.5.4-2.1 1.6-2.3 4.1.9 18.6 6.1 27.5 3.3 5.9 6.2 9.4 7.7 9.4.5 0 1.7 1 2.8 2.1 1 1.2 3.7 2.9 5.9 3.9 2.2.9 6.3 2.8 9 4.1 4.3 2 6.4 2.4 14.5 2.3 11.3-.1 17.4-1.9 17.8-5.2.2-1.2.9-2.2 1.6-2.2.8 0 1.9-.7 2.6-1.5 2.1-2.6 10.4-6.7 12.7-6.2 1.4.2 3.1-.4 4.5-1.7 2.7-2.5 6.7-3.1 7.5-1 .3.8 1 1.4 1.6 1.4.6 0 1.9.8 2.9 1.7 1.6 1.4 2.3 1.5 3.8.5 2.9-1.8 6.6.4 9 5.3 2.7 5.5 2.5 7.6-.7 10.6-8.3 7.5-14.7 9.6-18.5 6.2-.9-.8-3-1.3-5-1.1-3 .3-3.3 0-3.6-2.4-.3-2.5-.6-2.7-2.4-1.7-1.5.8-2.2.8-2.8 0-.3-.7-1.4-.9-2.3-.5-1.2.4-1.7.1-1.7-1 0-2.2-2.3-2-4.5.4-1 1.1-2.2 2-2.6 2-.4 0-2 1.1-3.5 2.5s-3.3 2.4-3.9 2.1c-.7-.2-2.7 1.2-4.5 3.2-3.2 3.6-3.5 3.7-9.4 3.4-10.2-.5-14.7 2.6-13 8.9.6 2.1 7.2 3.3 9.2 1.6 1.2-1 1.4-.9 1 .3-.2.8-1.5 1.6-2.7 1.8-2.4.4-6.1 3.5-6.1 5.2 0 1.2 4.3 1.3 5.5.1 1.1-1 12.5-2.6 12.5-1.7 0 .2-.4 1.6-1 3-1 2.7 0 2.5-15.4 2.5-4.9 0-12.9 3.1-14.4 5.5-.4.7-1.9 2.1-3.4 3-1.5 1-3 3.1-3.3 4.7-.4 1.7-1.3 3.3-2.1 3.6-.8.3-1.4 1.2-1.4 1.9 0 1.1.4 1.2 1.8.4 3.9-2.3 7.3-5.8 7.7-8 .7-3.6 3.5-5.9 9.3-7.4l5.2-1.3.7 2.6c.7 2.8 2.6 5.1 4.1 5.1 1.4 0 2.2 2.4 1.6 4.8-.4 1.3 0 2.1 1.3 2.6 1 .3 2.4.9 3.1 1.2.8.4 1 0 .6-1s-.1-1.6.9-1.6c.9 0 1.7 1.1 1.9 2.7.2 1.9 1 2.7 2.7 3 1.4.2 3.4 1.3 4.5 2.5 1.8 2 2.1 2 2.4.5.2-.9.8-1.7 1.3-1.7s.9-1 .9-2.3c0-1.2.9-3.3 1.9-4.6 3.4-4.5 6.8-.2 4 5-.6 1.2-.8 2.7-.5 3.5.8 2 4.3.1 5.8-3.2 1.5-3.1 3.2-3.1 2.4.1-.5 2-.3 2.3 1.1 1.8 1-.3 2.4-1 3.1-1.6.8-.6 1.7-.5 2.7.3 1.2 1 1.5.9 1.5-.6 0-1.1 1.3.5 2.8 3.5 2.4 4.8 3.3 5.7 7.2 6.9 4.7 1.5 5.6 1.9 10.4 5.1 4.5 3 6.9 1.5 8.2-5.1.6-3.1 1.4-6.1 1.8-6.7 1-1.5 2.6-.4 2.6 1.8 0 1.1.8 2.9 1.9 4.2 1.7 2.1 2.6 2.3 8.6 2.1 6.7-.2 9.5-1.3 9.5-3.8 0-.7 1.1-2.4 2.4-3.9 2.1-2.3 2.5-2.4 3.7-.9.7.9 1.8 2.5 2.4 3.7.5 1.1 2.4 2.4 4 2.9 3 .8 8.5 8.2 8.5 11.3 0 2.1 1.7 2.7 2.4.9.6-1.5.8-1.5 2.4-.1 1.2 1.1 2.2 1.3 3.2.7 2.1-1.3 4.4.8 2.9 2.6-1.5 1.9-.4 4.4 2 4.4 2.5 0 4 2.6 4.5 8.1.4 5 1.5 5.7 5.1 3.3 2.1-1.3 3.1-1.5 5-.6 1.4.7 2.5 1.6 2.5 2.2 0 .6.5.8 1 .5.6-.3 1.4.5 1.9 1.8.6 1.4 1.5 2.8 2 3.2 1.7 1 1.3 4-.8 6.6l-1.8 2.3-1.8-2.7c-.9-1.5-2.3-2.7-3.1-2.7-.8 0-2.6-1.9-4.1-4.2-2-2.9-2.9-3.7-3.1-2.5-.5 2.4-4.2 2.2-4.2-.2 0-1.4-1-2.1-3.2-2.6-4.3-.9-8.8-3.6-8.8-5.2 0-1.9-5.4-4.3-9.8-4.3-4.6 0-15 1.8-17.3 3-2.8 1.4-16.9 4.2-18.5 3.6-.8-.3-2.3-.2-3.2.3-2 1.1-13-2.3-18.3-5.7-2-1.2-4.4-2.2-5.2-2.2-.9 0-3.8-1.4-6.4-3-5.6-3.6-9.6-3.8-17.6-1-3.2 1.1-6.2 1.8-6.7 1.5-.5-.3-1.7-.1-2.7.4-2.8 1.5-15.1 5.1-17.4 5.1-1.1 0-2.9.5-3.9 1-1 .6-4.5 1.4-7.7 1.9-7.5 1.1-17.6 5-23.3 8.9-2.5 1.7-6.6 3.8-9 4.8-2.5 1-4.7 2-5 2.4-.9 1.2-18 10-19.3 10-.8 0-2.4.9-3.7 2-1.3 1.1-3 2-3.9 2-.9 0-2.7.7-3.9 1.6-2.7 1.8-5.2 1.2-5.2-1.3 0-1-.4-2.4-.9-3.2-.7-1.1-1.9-.4-5.4 3.1-2.5 2.5-5.8 4.9-7.4 5.2-1.6.4-4.8 2.7-7.2 5.1-2.8 2.9-5.5 4.7-7.7 5.1-1.9.3-3.4 1-3.4 1.5s-.6.9-1.4.9c-.8 0-1.8 1-2.2 2.2-.6 2.2-3.2 5.9-6.9 10.1-1 1.1-2.3 1.6-3.4 1.2-1.2-.3-2.1 0-2.5 1-.3.8-1 1.5-1.5 1.5-.7 0-.7-.9-.1-2.6 1.3-3.3 1.3-3.4-.5-3.4-.8 0-1.5.6-1.5 1.4 0 .8-1.3 2.8-3 4.6-1.6 1.8-3 3.5-3 3.9-.1 1.8-5 6.3-6.3 5.8-1.5-.6-6.7 5-6.7 7.2 0 .5-.8 1.2-1.7 1.6-3.4 1.2-6 5.8-6.6 11.7-.6 6.2-.1 7 2.8 3.8 1-1.1 3-2 4.4-2 2 0 3-.8 4-3.1 1.1-2.5 1.8-3 3.8-2.6 2.9.5 9.3-5.1 9.3-8.3 0-1.1.4-2 .9-2 .4 0 2-1.2 3.4-2.6 1.4-1.4 3.1-2.3 3.7-1.9.5.3 1 .4 1 .1 0-.2.3-1.3.6-2.3.5-1.5.4-1.5-.5-.3-.8 1.1-1.1 1.1-1.1.2 0-.7.7-1.5 1.5-1.8 1-.4 1.3-1.3.9-2.6-.5-1.6-.2-1.9 1.8-1.6 1.5.2 2.4 1.1 2.6 2.7.3 1.7 0 2.1-1 1.6-1-.6-1-.5-.1.5 1.2 1.3 8.9.5 9.9-1.1.3-.5 1.6-.9 2.8-.9 2.1 0 8.3-2.3 14.4-5.3 1.7-.8 3.1-.8 5.6.1 1.8.7 4.9 1.2 6.8 1.2 2 0 3.8.5 4 1.2.3.8 3.8 1.3 10.1 1.6 9.2.4 9.9.3 13.5-2.2 2.1-1.4 4.8-2.6 6-2.6 1.2 0 2.2-.6 2.2-1.3 0-1.8 3.9-4 7.8-4.3 1.8-.2 4.6-1.3 6.3-2.4 2.3-1.7 3.3-1.9 4.4-1 1.2 1 2.2.6 5.2-1.9 3.8-3.1 6.3-4 6.3-2.1 0 1.5 2.6 1.2 4-.5.7-.8 2.4-1.5 3.9-1.5 2 0 2.3.2 1.1 1-1.3.9-1.2 1.1.5 1 .3 0 2.6 1.5 5.2 3.5 4.9 3.7 5.8 4.1 6.8 2.5 1.1-1.7 2.4-1.1 3.1 1.5.7 3 .7 3 6.1.4 3.9-1.9 4.9-2 8.9-1 2.7.7 7.1.9 11 .5 3.6-.4 6.9-.3 7.2.2.4.5 2.2 2 4.1 3.3 3.1 2.2 3.9 2.3 11.8 1.7 6.6-.6 8.3-.4 7.7.5-.5.9-.2 1 1.2.4 1-.5 3.9-.9 6.4-1 2.5 0 5.5-.4 6.8-.8 1.7-.6 3.6-.2 7.2 1.7 2.8 1.5 5 2.4 5 2.1 0-.3.9-.1 1.9.4 1.4.8 2.2.7 3.2-.5s2.3-1.4 5.8-.9c2.5.4 5.2 1.2 5.9 1.7.7.6 1.5.8 1.9.5.3-.3 1.8 0 3.3.8 1.5.8 3 1.1 3.3.8.4-.3 1 .2 1.3 1.2.5 1.1.1 2.1-.9 2.7-1.9 1-2.3 4.8-.6 4.8.6 0 1.3-.9 1.6-1.9.4-1.6.9-1.8 2.4-1 1 .5 2.8 1.3 3.9 1.9 2.7 1.4 5 .2 5-2.6 0-1.9.5-2.4 2.4-2.4 1.3 0 3.1-.3 4-.6 1.1-.4 1.7.2 2.2 2.3.4 1.5 1.3 3.5 2.1 4.4 1.5 1.8.8 4.9-1.2 4.9-.7 0-1.5.7-1.9 1.5-.8 2.2-2.4 1.8-5.1-1.1l-2.5-2.7v2.8c0 4.1-4.2 12.4-6.2 12.5-1.9 0-2.5 2.5-.8 3.5 1.7 1.1 1.1 4.5-.7 4.6-1 0-1.3.3-.6.6.7.2 1.5 2.1 1.9 4.1.4 2 1.3 4.7 2.1 5.9 1.7 2.6 1 4.3-1.7 4.3-1.3 0-1.9-.6-1.8-1.8.3-4.2-.4-5.9-2.7-7-1.7-.8-2.5-2-2.5-3.6 0-3.3-1-5.7-2.1-5-.5.3-.9 1.8-.9 3.3 0 1.5-.6 3.3-1.2 3.9-1 1-1 1.5.2 2.2 1.3.8 1.3 1-.1 1-.9 0-1.9.9-2.2 2.1-.4 1.5-1.1 1.9-2.5 1.5-1.2-.4-2.2-.1-2.5.7-.9 2.4-5.6 2.7-7.1.5-.8-1.1-1.7-1.5-2-1-.6 1-9.7.9-15.4-.1-2.3-.4-4.2-.1-5.8.9-1.4 1-3.8 1.5-5.9 1.2-2-.2-3.5 0-3.5.7 0 .5-.5.2-1.1-.8-.5-.9-1.6-1.7-2.4-1.7-.7 0-2.1-.8-3.1-1.7-1.2-1.3-3.7-1.8-8.8-2-3.9-.2-8.5-.6-10.2-.9-1.8-.3-3.4-.1-3.8.5-.4.6-1.8 1.1-3 1.1-1.3 0-3.5 1.2-5 2.7-2.3 2.3-2.9 2.5-5.2 1.5-3.1-1.5-8.1-1.6-8.9-.2-.3.5-1.5 1-2.6 1-1 0-1.9.6-1.9 1.4 0 2.2-1.9 3-4.3 1.8-1.2-.6-3.7-1.6-5.4-2.4-1.8-.7-3.3-1.9-3.3-2.5 0-2.2-3.7-1.4-4.3.8-.3 1.2-1 1.8-1.6 1.5-.5-.4-1.2-.2-1.6.4-.3.5-.1 1 .5 1 2.4 0 .5 5.4-2.5 7-1.6.9-3.6 2.7-4.2 4.1-.7 1.3-1.7 2.3-2.3 2.1-.5-.1-1 .3-1 .9 0 .5-.4.8-.9.5-1-.7-2.5 6-1.6 7.4.7 1.2-1.2 5-2.5 5-.6 0-1-.6-1-1.4 0-.8-.7-2.1-1.5-3-.9-.9-1.1-1.7-.5-2.1 1.6-1 1.2-3.5-.5-2.9-.8.4-1.5 1.8-1.5 3.2 0 1.4-.7 3.3-1.5 4.2-1.8 2-1 5 1.2 5 1 0 1.3.6.9 1.6-.3.9-.6 2.4-.6 3.5 0 1-.7 1.9-1.5 1.9s-1.7 1.1-2.1 2.5c-.6 2.4-4.4 3.7-4.4 1.5 0-.6-.5-1-1-1-.6 0-.5.8.2 2 2 3.1-.5 4.2-8 3.6-5.4-.5-6.8-.2-9.2 1.5-2.6 2-3 2-5.8.7-2.8-1.5-2.9-1.4-2.5.6.4 1.6.2 1.8-.5.7-.6-.8-1.9-1.2-3.1-.8-1.8.4-2.1.2-1.5-1.5.4-1.4.3-1.8-.6-1.3-.6.4-1.9.1-2.8-.7-.9-.8-3.3-2.4-5.3-3.5-3.9-2.2-5.9-1.6-5.9 1.7 0 .9-.3 2-.6 2.3-.9.9-4.6-1.2-6.2-3.5-1.4-1.9-6.2-2.5-6.2-.8 0 .7-.6.7-1.9 0-2.7-1.4-3.1-1.3-3.1 1.1 0 1.9-.4 2.1-3.1 1.5-2.2-.4-3.9 0-5.9 1.4-2.7 1.9-8.5 2.1-16.2.4-2.6-.6-2.8-.4-2.9 2.7-.1 2.3-.3 2.7-.7 1.4-.3-1.5-.8-.8-1.6 2.5-.8 3-.9 4.9-.2 5.8.7.9.5 1.6-.4 2.2-1.1.7-1.1 1.2-.2 2.3.7.7.9 1.7.6 2-.3.3.1 1.6 1 2.9 3.4 4.9.5 11.4-4.5 10.1-1.9-.5-2-1.2-1.5-6.2.3-3.1.8-7.5 1.2-9.9.5-3.5.3-4.6-1.2-5.7-2.8-2.1-3.3-1.9-5 2.5-.9 2.2-2.2 4-3 4-.8 0-1.4.4-1.4 1 0 .5-.7 1-1.5 1-1 0-1.5 1-1.5 3.4 0 4.4-3.6 10.6-6.1 10.6-1 0-1.9.3-1.9.7 0 .5-1.4.8-3.1.9-1.7.1-2.7-.2-2.2-.5.9-.7 3-5.1 3.1-6.5 0-1.3 3.2-2.9 4-2.1.4.3 0 1-.8 1.5-1.7 1.1-.9 1.3 1.3.4 1.1-.4 1.4-1.6 1-4.5-.3-2.3-.2-3.9.5-3.9.5 0 1.2-.9 1.5-2 .3-1.3 1.7-2.2 3.6-2.6 2.7-.6 4.6-3.4 2.2-3.4-.4 0-.6-1.1-.3-2.5.3-1.6-.2-3.3-1.4-4.6-1.1-1.2-1.8-3.4-1.7-5.4.1-2-.4-3.5-1-3.5-.7 0-.7-.4.1-1.2 2-2 1.4-2.8-2.2-2.8-4.3 0-11.7-6.3-9.8-8.2 1.5-1.5 1.6-5.5.1-6-.5-.2-1.4-2.2-2-4.6-.8-3.9-.7-4.4 1.9-6.9 4-3.9 7.1-9.7 8.3-15.4.6-2.8 1.6-4.9 2.4-4.9.7 0 2.3-.8 3.6-1.9 2-1.6 2.2-2.2 1.2-4.3-1.7-3.7-4.7-4.1-7.6-.9-1.4 1.4-3.7 3.9-5.2 5.5l-2.6 2.8-2.4-2.2-2.3-2.1-1.7 3.3c-1 1.8-1.9 5.9-2.1 9-.2 5.2-.1 5.8 1.7 5.8 1.5 0 2 .6 1.7 2.2-.2 1.8-1 2.4-3.9 2.6-3 .3-3.7-.1-4.7-2.3-1.3-2.8-3-2.9-4.3-.4-.4.8-1.5 3.1-2.5 5.2-1 2-2.7 4-3.6 4.3-1 .3-1.8 1.4-1.8 2.4s-.3 2.5-.6 3.3c-.4 1.2.1 1.3 3.5.4 3.1-.9 4.4-.8 5.3.1 1 1 1 1.5-.2 2.2-.8.6-2.1.8-2.7.5-1.7-.6-1.7 2.5 0 5 2.7 3.9 2.7 6.5.1 10.3-4.1 6.1-10.6 6.3-12.1.4-.8-3.3-2.6-5.2-4.9-5.2-1.2 0-1.4-.3-.6-1.3.9-1.1 1.7-8.4 1.3-13-.1-1.7-2.6-2.4-3.5-.9-.2.4-.1 2.3.3 4.2.6 2.7.3 4.4-1.3 7.4-1.6 2.8-1.8 4-.8 4.3 1.4.6 1.6 3.3.2 3.3-.5 0-1 .7-1 1.5 0 1.1-1.1 1.5-3.8 1.5-3.4 0-3.9.3-5.5 4.1-1.4 3.2-2.2 4-4 3.7-1.2-.2-2.7.3-3.3 1.2-.9 1.1-1.5 1.2-2.6.2-.8-.6-1.8-.9-2.1-.5-.4.3-.9-.1-1.2-.9-.4-.9-1.5-1.3-3.3-1-2.1.3-3.2-.3-5-2.8-1.3-1.7-2.5-4.3-2.7-5.8-.2-1.5-.4-2.8-.4-3-.2-.8-2.9 2.6-4.3 5.5-2.3 4.7-8.1 11.3-9.9 11.3-.8 0-2.3-.6-3.3-1.3-1.4-1.1-1.5-1.7-.6-4.2 1-2.6.9-3.2-1.2-4.8-1.4-1.2-2.4-1.5-2.6-.8-.2.6-.8.8-1.4.5-.6-.4-1.4 0-1.9.7-.4.7-1 1.1-1.4.8-.3-.3.6-1.8 2-3.3 2.7-2.9 3.2-4.6 1.4-4.6-.8 0-.8-.4 0-1.4 1.8-2.1-2.9-5-6.6-4.2-1.6.3-2.2.3-1.5 0 .6-.3 1.2-1.1 1.2-1.8s1.6-3.1 3.5-5.3c2.8-3.3 3.2-4.3 2.2-5.6-.9-1.1-1.8-1.3-3.4-.6-1.3.4-2.3 1.3-2.3 1.9 0 .5-1.3 1-2.9 1-1.7 0-3.1.6-3.5 1.6-.6 1.5-.8 1.5-2.6-.1-2.1-1.9-2.8-7.5-.9-7.5.8 0 .8-.4-.1-1.5-1.3-1.6-.5-9.1 1.1-10.1s1-2.4-1.1-2.4c-1.1 0-2 .6-2 1.2-.1.7-1.9 3.1-4 5.3-2.2 2.2-4 4.3-4 4.7 0 .5-.4.8-1 .8-.5 0-1-.6-1-1.3 0-.7-.8-2.2-1.7-3.3-3.1-3.4-5.5-9-5.6-13.3-.2-3.7-.5-4.1-2.8-4.1-1.5 0-3.6-1.1-5.1-2.8-2.2-2.3-2.7-3.9-3.1-10.5-.3-4.2-.2-7.7.2-7.7 1.3 0 2.1-4.4 1.1-5.4-.6-.6-1-1.9-1-3.1 0-1.1-1.6-3.8-3.5-6s-3.5-4.5-3.5-5.1c0-.5-.6-2.2-1.2-3.8-1.2-2.4-1.7-2.7-4.9-2.2-3.6.6-3.7.5-4.3-3.2-1.4-8.6-.7-16 2-20.8 2.1-3.8 2.4-5.2 1.7-7.7-.4-1.7-1.4-3.2-2.1-3.5-1.4-.4-3.2 3.7-3.2 7.3 0 2.2-3.9 5.8-4.1 3.8 0-1.1-1.9 3.1-3.9 8.7-1.1 3.3-2 4.5-3.4 4.3-1.1-.1-2.6.6-3.4 1.4-1.4 1.4-1.8 1.3-3.4-.7-1.4-1.7-1.7-3.2-1.2-5.6 1-5.2.1-6.7-3.2-5.2-2.2 1-2.8 1-3.2 0-.2-.7-1-1.9-1.9-2.7-.8-.8-1-1.5-.4-1.5s1.1-.9 1.1-2-.4-2-1-2c-1.7 0-1.1-2.9 1-5 1.1-1.1 2-2.9 2-3.9 0-1.1.4-2.2.9-2.5 1-.6 2.5-8 1.9-9.3-.1-.5-1.2-.9-2.3-1-1.1 0-2.6-.1-3.2-.2-1-.1-1.3-2.7-1.3-9.3 0-9.5-1.5-15.8-3.7-15.8-1.7 0-3.3 3.3-3.3 7 0 4.6-2.8 10.6-4.2 9.2-.8-.8-.9-2.9-.2-7.7.9-5.8.8-6.7-.7-7.5-2.6-1.4-4.9-17.3-2.7-18.6.6-.4.5-.9-.2-1.4-1.4-.9-.6-4 1-4 .5 0 1 .7 1 1.6 0 2 2.2 4.2 3.8 3.6.6-.2 1.2-1.7 1.2-3.3 0-3.8 1.8-3.7 3.4.2l1.3 3 1.6-2.5c1.7-2.5 2.7-10.3 2.6-19.8 0-2.5.5-4.9 1.1-5.3 1.9-1.2 1-2.7-1.3-2.1-3.9.9-6.7-4-7.1-12.4-.2-3.9-.9-7.6-1.5-8.4-.8-1-.6-2.9.9-7.7 2-6.1 2-10.9-.1-13.5-1.2-1.5-.4-22.3.9-23.6 1.4-1.4 1.6-8.7.3-10.6-.6-1.1-1-1.1-1.8 0-1.4 1.8-3.3 7.7-3.3 10.1 0 1.2-1 3.1-2.2 4.4-2.4 2.5-3.9 3-3.6 1 .2-.7-.5-1.1-1.8-.9-1.8.2-2.2-.3-2.6-3.5-.3-2-.1-5.6.4-7.8 1.6-7 2.1-15.2 1.3-22-.7-6.4-.7-6.5-3.3-5.9-5.6 1.3-8.3 5.6-8.7 13.5-.4 6.9-1.5 10.9-3 10.9-.9 0-1.3-1.6-1.3-5.1 0-3.5-.5-5.4-1.6-6.2-1.8-1.3-2.9-6.4-1.8-8.2.4-.6.7-1.5.8-2 0-.6.2-1.6.2-2.3.3-2.1 2.2-1.3 2.2.9 0 1.1.5 1.7 1 1.4 1.7-1 1.1-3.3-.9-4-1.6-.5-4.6-5.9-3.8-6.8.1-.1-.8-1.6-2.1-3.4-1.2-1.7-2.2-4.6-2.2-6.5 0-1.8-.7-4.4-1.6-5.6-.8-1.2-1.2-2.7-.9-3.2.3-.6-.1-1-.9-1-1.9 0-1.8.3-2.1-17-.1-8.5-.7-14.4-1.4-15.9-.7-1.3-1.6-6.2-1.9-11-.6-7.9-.9-8.6-2.9-8.9-1.3-.2-2.3-.9-2.3-1.7 0-.7-.7-2.6-1.5-4.1-1.1-2.1-1.3-4.3-.8-7.9.3-2.8.6-5.5.5-6-.6-5.3-.3-13.8.7-16.8.7-2 1-4.5.6-5.6-.3-1.1.5-4.5 2-8 1.4-3.3 2.5-6.9 2.5-8 0-1.1.7-4.2 1.6-6.8.9-2.6 1.6-6.7 1.5-9.1-.1-2.9.6-5.4 2.2-8 4.4-6.9 11.7-22.3 11.7-24.5 0-1.2.9-5.1 2-8.5 1.1-3.5 2-8.2 2-10.3 0-2.4 1.3-6.8 3.5-11.3 1.9-4.1 3.5-8.5 3.5-9.8 0-1.2.7-3.2 1.5-4.2.8-1.1 1.5-3.6 1.5-5.7 0-3.8 2.5-11.1 6.6-19 1.3-2.6 2.4-5.7 2.4-7 0-3.1 7-32.5 10-42.3.5-1.6.7-3.3.4-3.7-.3-.5.2-2.2 1.1-3.8.8-1.7 2.2-6.1 2.9-9.8 1.7-7.7 5.8-17.5 8.6-20.3.3-.3 1.2-1.8 2-3.4.8-1.6 3.1-3.9 5-5.2 1.9-1.3 5.3-3.9 7.5-5.9 2.2-2 6.3-4.7 9-6.1 2.8-1.3 6.4-3.5 8-4.9 1.7-1.4 3.5-2.5 4.2-2.5 3.7 0 13.3-7.6 13.3-10.5 0-.3 1.1-1.8 2.5-3.3 1.4-1.5 2.5-3.2 2.5-3.8 0-1.2 2.5-3.2 7.8-6.4 2.2-1.4 3.2-2.7 3.2-4.4 0-1.4.6-2.9 1.3-3.3 4.5-2.9 9-15 7.7-21-.5-2-1.4-3.9-2-4.3-.7-.4-1-1.8-.9-3.1.2-1.3 0-2.9-.4-3.6-1-1.5.2-6.3 1.5-6.3.6 0 .7-1.9.3-4.8-.4-3.1-.1-6.4.9-9.7 2-6.2 2-6.5 0-6.5-.9 0-2.6-.8-3.8-1.8-2.3-1.8-2.3-4.6 0-7.3 1.2-1.3 1.2-1.8-.1-3.5-.8-1-1.5-3.6-1.5-5.6 0-2-.4-4-1-4.3-.5-.3-1-1.7-1-3 0-3.3-1-5.5-2.5-5.5-1 0-1.2-1-.8-3.4.3-1.9.1-3.6-.6-4-.8-.5-.7-1.6.4-3.6 1.9-3.7 1.9-7.4 0-9-.8-.7-1.7-2.8-2.1-4.9-.4-2-1.2-4.3-1.8-5.1-2.2-3-3.6-6-3.6-8 0-1.3-.7-2-1.8-2-2.8 0-4.2-2.1-4.2-6.1 0-2.1-.4-4.1-1-4.4-.5-.3-1-1.7-1-3s-.4-2.7-1-3c-.6-.4-.3-2.1.6-4.6 1-2.4 1.4-5.2 1-7.1-.4-2.2.1-4.6 2-8.4 1.5-3 3-5.4 3.5-5.4s.9-1.4.9-3.2c0-2.3 1-4.1 3.8-6.7 2-2 4.6-5.4 5.7-7.6 1.1-2.1 3.2-4.6 4.7-5.4 1.6-.9 2.8-1.9 2.8-2.4 0-.4.5-.7 1.1-.7.7 0 2.1-1 3.3-2.3 1.2-1.2 3.3-3.1 4.7-4.2 1.4-1.1 3.7-3.6 5-5.5 2.8-4.1 4-5.1 5.1-4.3.5.2 3-.5 5.5-1.7s5.2-1.9 6-1.6c.8.3 2.9-.5 4.6-1.8 1.8-1.3 5.1-3.3 7.5-4.5 2.4-1.2 5.1-3 6.1-3.9 7.9-7.3 26.6-20.2 29.3-20.2.4 0 2.8-1.6 5.4-3.5 4.8-3.7 11.3-5.9 20.4-7 3-.4 11.4-2.6 18.5-5 12.4-4.1 13.9-4.4 31.5-5.5 10.1-.7 20.9-1 24-.6 6.2.6 22.6-1.6 24.3-3.3.6-.6 4.8-1.2 9.7-1.2 4.7-.1 9.9-.4 11.5-.8 5.3-1.2 10.8-1.1 17.5.1zM1456.5 611c.3.5.1 1-.4 1-.6 0-1.1-.5-1.1-1 0-.6.2-1 .4-1 .3 0 .8.4 1.1 1zM554.9 877.6c5.5 1.6 11.9 4.5 23.5 10.8 8.6 4.7 16.8 7.6 21.6 7.6 5.6 0 10.3 2.4 13.3 6.7 1.5 2.2 2.7 4.3 2.7 4.8s.6 1.6 1.4 2.4c.7.9 2.9 6.1 4.7 11.6 3.1 9.1 3.4 10.8 2.8 17-.3 3.9-.4 9.9-.1 13.5.5 7-2.7 22.2-5.7 27-1.6 2.6-8.1 4.2-8.1 2.1 0-.6-.5-1.1-1.1-1.1-.6 0-2-1.1-3-2.5-1.6-2-2.4-2.3-4.3-1.5-1.3.5-2.7.6-3 .3-.7-.7-6.9 1.7-7.8 3.1-.3.5-.3 1.9.2 3 3 8.2 3.1 9.5 1.4 13.2-1.5 3.1-10.2 12.9-21.6 24.6-1.6 1.5-2.8 3.1-2.8 3.5-.1 1.3-4.8 6.3-5.9 6.3-.6 0-1.5.9-2.1 2-.6 1.1-1.8 2-2.6 2-2.2 0-6.3 5.1-6.4 8 0 1.4.3 4.2.6 6.2l.7 3.8h6.7c3.8 0 7.9-.6 9.6-1.4 1.6-.8 5.4-1.7 8.4-2 3-.3 8.6-1.1 12.4-1.7 6.3-1.1 7.2-1.5 12.3-6.7 3-3 6.2-7.1 6.9-9.1 3.4-8.4 5.2-11.1 7.7-11.1 2.4 0 3.7 12.1 3.8 34 .1 16.7.5 22.2 2.1 29.5 1.1 4.9 2.8 12.7 3.8 17.2 1 4.6 2.2 8.8 2.8 9.5 1.4 1.8 3.1 10.8 4 21.1.7 7.8.6 9-.9 10.1-1.8 1.2-5.9 12-5.9 15.5 0 1.1.5 2.3 1 2.6.6.3 1 1.2 1 2 0 2.1 5.2 7 9.7 9.1 2.8 1.3 4.3 2.5 4.3 3.8 0 1.1.9 3 2.1 4.2 1.1 1.2 2.3 3.7 2.6 5.5.3 1.9.8 3.8 1.3 4.4 1.2 1.6 2.5 8.3 3.9 21.5 1.2 10.3-.8 14.2-6.2 12.1-5.2-2.1-12.8-4.1-15.6-4.1-6.9 0-23.6-3.1-24.4-4.5-.4-.8-1.2-1.5-1.8-1.5-.5 0-2.8-.8-5.2-1.9-2.3-1-8-3.1-12.6-4.6-8.9-2.8-19.2-7.9-25.1-12.2-6.6-4.9-29.3-28.8-33.6-35.4-6.5-9.9-12.3-28.9-12.4-40.4 0-2.8-.7-8.6-1.6-13-.8-4.4-2.3-15.7-3.4-25-2.1-18.7-3.7-28.4-7-42-2-8.1-6.6-29-9-40.5-4.2-20-3.7-57 .7-57 1.8 0 4.5 9.6 5.4 19.2.6 5.7 1.6 11.3 2.4 12.5.8 1.2 1.5 3.1 1.5 4.2 0 2.8 3.4 2 3.8-.9.2-1.3 1.7-3.6 3.3-5.1 1.6-1.5 2.9-3.4 2.9-4.3 0-.9.6-1.6 1.4-1.6.8 0 1.6-.7 2-1.5.3-.8 1.3-1.5 2.3-1.5.9 0 2.8-1.1 4.2-2.4 2.3-2.2 3.6-2.5 10.5-2.7 8.7-.2 9.1-.4 14.4-8.2 1.8-2.5 4.8-5.5 6.7-6.7 6.1-3.8 4.5-7.8-9-22.5-14-15.2-23.7-19.3-34.3-14.5-4.4 2-13.1 7.7-14.5 9.5-1.5 2 .6-5.1 3.3-11 3.7-7.9 8.6-13.4 17.4-19.3 7.6-5.1 11.3-6.9 16.1-7.5 4.5-.6 13.3.3 19.4 1.9zm717.1 8.5c0 1.1-.4 1.7-1 1.4-.5-.3-1-1.3-1-2.1s.5-1.4 1-1.4c.6 0 1 .9 1 2.1zm45.8 26.7c.2.7-.5 1.2-1.7 1.2-1.4 0-1.9-.5-1.4-1.5.6-1.7 2.5-1.5 3.1.3zm-45.8 36.3c-.6 1-1.5 1.9-2 1.9-.6 0-1 .7-1 1.6 0 1 .6 1.3 1.9.9 1-.3 6.9.9 13 2.6 6.2 1.7 11.5 2.8 11.8 2.5.4-.3 1.5.1 2.5 1.1 1 .9 2.1 1.3 2.5 1 .3-.4 2.6.4 5 1.8 2.8 1.7 4.3 2.1 4.2 1.3-.1-2-2.7-8.5-2.8-7-.1.7-.6 1-1.2.7-1.6-1.1 2-4.5 3.9-3.8 1 .3 2.7 1.5 4 2.6 1.2 1.1 2.2 1.7 2.2 1.3 0-.4.9-.2 2.1.4 1.4.8 2.4.8 3.3.1 1.4-1.2 10.3.2 14 2.1 1 .5 3.8 1.1 6.3 1.4 6 .5 11.8 2.3 14 4.3 2.3 2.1 8.3 2.8 8.3.9 0-.9.2-1 .8-.1.8 1.3 10.5 1.7 16.3.7 2.2-.3 3.9-.2 4.3.5 1 1.6 8.2 1.4 11.5-.4 2.5-1.2 3.1-1.2 4.7 0 1.1.8 3.1 1.5 4.7 1.5 1.5 0 2.7.6 2.7 1.3 0 .7 1.6 2.1 3.4 3l3.5 1.6 6-4.4c5.4-4 6.1-4.3 7-2.7.6.9 1.1 1.2 1.1.6 0-1.8 2.9-2.5 5.1-1.4 1 .6 1.9.7 1.9.2 0-1.3 5-3.7 7-3.4 1.1.2 2-.5 2.3-1.8.3-1.3 1.3-2 2.9-2 1.3 0 2.8-.4 3.4-1 1.2-1.2 5.4 1.5 5.4 3.5 0 1.7 4.2 3 6.6 2.1.8-.3 1.2-1 .9-1.6-.3-.5.1-1 .9-1 .9 0 1.6.4 1.6.8 0 .5 1.1 1.5 2.5 2.2 2.2 1.2 2.8 1.1 4.8-.7 3.8-3.6 6-3.3 7 .9 1 4.3 2.7 5.1 2.7 1.3 0-1.4.5-2.5 1.1-2.5.7 0 .8 1.4.4 3.9-.7 4.2.4 7.3 3.6 10.4 1.2 1.1 1.9 3.2 1.9 5.7 0 2.8.4 4 1.4 4 .8 0 1.6-.5 1.8-1.2.3-.9 1.3-.9 3.9-.1 1.9.6 2.6 1.1 1.5 1.2-1.3.1-1.6.4-.8 1.3 1.7 2.2 1.9 7.1.2 7.5-1.3.4-1.3.3 0-.6 1.3-.9 1.2-1.1-.6-1.1-1.1 0-2.6-.6-3.3-1.3-1-1-1.2-.6-.8 2.1.3 1.8 1.1 4 1.7 4.8.9 1 .9 1.8.2 2.7-.6.7-.9 2.3-.6 3.4.4 1.4-.2 2.9-1.5 4.2-1.2 1.2-1.6 2.1-1.1 2.1.6 0 1 .5 1 1.1 0 .6-.7.9-1.5.5-1.6-.6-1.9.3-.9 2.8.3.9 1.6 1.6 2.8 1.6 1.7 0 1.8.2.6 1-1.5.9-1.3 1.1 1.3 1.4.6 0 1.3 1.1 1.5 2.3.3 1.7 0 2.1-1.2 1.7-.9-.3-1.6-.2-1.7.2-.4 5.4-.9 7.7-2 9-1 1.3-1 1.7.2 2.4 1.1.7 1.1 1.2.1 2.2-.9.9-1.2.9-1.2-.2 0-1.3-.2-1.3-1 0-.5.8-.7 2.3-.4 3.2.3 1 .1 1.8-.5 1.8-.5 0-2.2 1.6-3.7 3.6-2.1 2.7-2.5 3.7-1.5 4.4 1.1.6 1 1-.4 1.7-1.2.7-1.4 1.3-.6 1.7 1.9 1.2 1.2 2.6-1.8 3.9-2.8 1.2-9.1 8-9.1 9.9 0 .4 1.1 1.4 2.5 2 1.5.7 2.6 2 2.7 3.5 0 1.2.1 2.9.2 3.5.2 2-3.2 2.1-5.9.4-2.5-1.6-2.5-1.6-2.5 1.2 0 1.5.4 3.2.9 3.7.4.6 1.1 2.2 1.5 3.7.7 3.2-.8 3.7-2.6.9-1.1-1.7-1.4-1.8-3.5-.4-1.3.8-2.3 2.2-2.3 2.9 0 .8-.5 1.4-1.1 1.4-.7 0-1 1.5-.7 4 .3 3.6.1 4-1.9 4-2.1 0-2.3.5-2.3 4.5 0 2.5-.4 4.5-.9 4.5s-1.8 1.8-3 4c-1.1 2.2-1.6 3.9-1 3.7.6-.1 1.5.5 2.1 1.3 1.3 2.1-2.7 9-5.2 9-2.2 0-6 4.5-6 7 0 1-.7 2.3-1.5 3-.8.7-1.5 1.8-1.5 2.5s-.7 1.5-1.5 1.9c-2 .7-1.9 2.6 0 2.6 2.3 0 2.9 2.6 1.1 5.2-.9 1.2-1.6 3.1-1.6 4.1 0 1.1-.7 3.5-1.7 5.4-1.1 2.5-1.3 3.7-.5 4.2s.9 1.6.3 3.6c-.5 1.7-1 2.4-1 1.7-.1-.7-.5-1.1-1-.7-.5.3-.7 2-.4 3.9.4 2.7-.1 3.9-2.8 7-1.8 2.1-3.3 4.9-3.4 6.2 0 1.4-.6 2.8-1.1 3.2-.6.4-1.4 2.4-1.8 4.4-.5 2.6-1.2 3.8-2.4 3.8-1.6.1-1.6.1.1 1.1.9.6 1.7 2.2 1.7 3.7 0 3.4 1.6 5.2 4.7 5.2 4.2 0 2.1 3.3-2.8 4.5-2.2.5-2.7.3-3.2-1.7-.5-1.7-.9-2-1.8-1.1-.9.9-1.7.8-3.3-.2-1.2-.8-3.1-1.2-4.4-.8-1.7.4-2.2 1.3-2.2 4 0 3 .3 3.4 2 2.8 1.3-.4 3.1 0 4.6 1 1.4.9 3.2 1.4 3.9 1.1 1.9-.7 3 1.3 1.6 2.7-1.6 1.6-1.4 2.4.9 3 1.1.3 2.4 1.6 2.9 3s1.4 2.8 1.9 3.1c.5.3.7 1.9.4 3.5-.2 1.7-.8 2.8-1.3 2.6-.4-.3-1.6.6-2.5 2.1l-1.8 2.6-1.8-2.2c-1.4-1.8-1.8-1.9-1.8-.6 0 1-1.1 1.9-3 2.2-1.6.4-3 1.3-3 2.1 0 .7-.7 1.6-1.5 1.9-.8.3-1.7 1.5-2.1 2.7-.4 1.2-2 3.4-3.6 4.9-2.7 2.5-2.8 2.8-1 2.8 1.2 0 2.4-.5 2.7-1 1-1.6 2.1-1.2 3.3 1.5.7 1.5.8 2.7.2 3-.6.4-1 1.6-1 2.8 0 1.2-.9 2.8-2.1 3.5-1.1.7-2.7 2.9-3.5 4.9-.8 1.9-1.8 3.2-2.1 2.9-1.4-1.4-3.2 1.7-2.6 4.5.5 2.5.3 2.8-1.2 2.3-2.2-.9-6.8 3.9-6.1 6.4.3.9.1 2.4-.4 3.2-.9 1.3-1.2 1.3-2.3-.2-1.2-1.5-1.5-1.5-3.2.8-1.4 1.9-2.7 2.4-6.2 2.4-3.7 0-4.6.4-5 2.1-.4 1.4-1.2 1.9-2.4 1.6-1.1-.3-2.3.2-2.8 1.1-.5.9-1.3 1.3-1.7.9-.4-.4-.2-1.3.4-1.9 1.7-1.7 1.5-4.8-.4-4.8-1.1 0-1.4-.6-.9-2 .8-2.7-1.2-2.6-4.1.1-1.7 1.6-2.2 2.9-1.8 4.9.5 2.2.2 2.8-1.6 3.3-1.5.4-2.1 1.1-1.7 2.1.4 1.1 0 1.6-1.2 1.6-2.5 0-1.6-4.1 1.1-4.7 2.4-.7 2.5-5.3.1-5.3-2.3 0-3.8 1.1-4.6 3-.3.9-.6.4-.6-1.3-.1-2.4-2.1-4.1-2.1-1.7 0 .5-1.4.7-3.2.3-3.4-.6-7.8-4.4-7.8-6.7 0-2.4-2.7-3.9-4.9-2.7-2.5 1.4-8.1.3-8.1-1.5 0-.8-.4-1.4-1-1.4-.5 0-1.3-1.2-1.6-2.7-.9-3.5-5.7-10.5-8.3-12.1-1.2-.7-2.1-2-2.1-3 0-.9-.7-2.5-1.5-3.5-.8-1.2-1.1-3.1-.8-5.1.5-3.3.2-3.9-4.2-7.1-1.9-1.4-1.9-1.6-.2-2.6.9-.5 1.7-1.6 1.7-2.3 0-1.7-3.9-5-7.7-6.5-3.5-1.4-6.2-.6-4.4 1.2.6.6 1.1 1.7 1.1 2.5s.8 2.1 1.8 2.8c1.5 1.2 1 1.3-3.3.9-4.4-.3-5.5-.9-8.8-4.7-2.1-2.4-4.3-5.6-4.9-7.1-.9-2.3-1.5-2.7-3.4-2.3-1.8.5-3-.3-6-3.9-4.5-5.4-6-6-9-4-1.9 1.2-2.8 1.3-4.9.3-3.9-1.7-3.2-3.8 1-3.1l3.6.6-2.1-3.6c-1.8-3-3.1-3.8-9.3-5.7-10.9-3.4-11.6-3.7-13.7-7.2-2.6-4.3-2.5-4.8.5-4.8 3.2 0 3.2-1.8 0-2.6-3.4-.8-6.9-6.7-6.2-10.4.5-2.1 0-3.5-1.8-5.4-1.8-2-2.3-3.6-2.2-6.8.2-3.9.6-4.5 3.7-5.9 3.5-1.6 6.2-1 5.7 1.4-.1.6 1.4 1.9 3.3 2.9 3.1 1.6 3.5 1.6 3.8.3.2-.9-.3-2.6-1.1-3.9-1.3-1.9-1.3-2.7-.3-4.7 1.2-2.4 2.6-2.7 7.6-1.5 1.4.4 1.9.3 1.1 0-.9-.5-.3-1.1 2-2.2 1.9-.8 3.9-1.4 4.6-1.3 2 .3 3.6-4 4.4-11.9.4-4.1 1.2-9.6 1.7-12.2.5-2.6.6-4.7.3-4.6-1.8.2-2.2-.3-1.4-1.5.6-.6 1.3-3.1 1.7-5.5.3-2.4 1.2-5.2 1.9-6.3 1-1.6.9-2.1-.2-2.8-1.1-.7-1.1-2.8-.2-12.1.6-6.2.8-11.7.4-12.4-.4-.6-1.2-4.5-1.9-8.6-2.2-13.9-3.3-19.2-4.2-20.4-1.7-2.1-2.5-9.1-2.3-20.6.1-6.3.5-11.8.7-12.2.3-.4-.4-2.6-1.5-5-3.4-7.8-4.4-10.9-4.3-13.9 0-1.6-.4-2.9-1-2.9-.7 0-.8-1.9-.4-5.8.4-3.1.7-6.6.6-7.7-.5-7.3-.1-10 1.8-11.5 1.7-1.5 1.9-2.2 1.1-7.3-.5-3.1-1.1-8.3-1.3-11.5-.2-3.1-.5-6.4-.7-7.2-.3-.9.5-1.6 2.1-1.8 2-.2 2.2-.1 1 .8-1.1.8-.6.9 2 .5 5.4-.7 6.9-1.1 7.6-1.8 1.3-1.3 2.4.5 1.4 2.4zm214.5 11.8c.3.5.1 1.2-.5 1.6-.5.3-1-.1-1-.9 0-1.8.6-2.1 1.5-.7zm56.5 36.6c0 .8-.4 1.5-1 1.5-.5 0-1-.7-1-1.5s.5-1.5 1-1.5c.6 0 1 .7 1 1.5zm-1.3 73.8c.7.7 1.4 2.3 1.5 3.7.3 2.3 0 2.5-3.2 2.2-1.9-.1-4.5-.9-5.7-1.8-2.5-1.6-3.1-4.9-1-5.8 1.8-.8 7 .2 8.4 1.7zm-437.2 31.1c1.4 2.1 1.4 2.8.2 5.8-.8 1.8-1.2 3.8-1 4.5.7 2.1-2.8 6.3-5.3 6.3-1.2 0-3.5 1.1-5 2.5-1.6 1.5-3.9 2.5-5.5 2.5s-2.9.4-2.9 1c0 .5-.7 1-1.5 1s-1.5-.4-1.5-.8c0-.5-1.1-1.4-2.5-2-1.9-.9-2.5-.9-2.5 0 0 .6-.8.4-1.8-.5-1-1-2.3-1.7-2.9-1.7-.5 0-1.6-1.1-2.3-2.5-1.1-2.1-1.1-2.9.6-6 2-3.8 5.5-5.5 11.4-5.5 4.6 0 9.3-1.6 13.8-4.7 4.4-2.9 6.8-2.9 8.7.1zm424.5 22.3c.8 15.3.4 41.6-.8 47.8-1.6 8.4-5.8 19.6-8.1 21.2-12.4 9.1-14.8 13.1-10.8 18.5 1.1 1.5 2.6 2.8 3.3 2.8 1.9 0 2.7 3.6 2 8.4-.5 3.1-1.8 5.5-5 8.9-2.4 2.5-4.6 4.3-4.9 4-.3-.3-1.2-.1-1.9.3-3.3 2.1-4.4 1.1-3.8-3.9.1-1-.4-2.5-1-3.2-.7-.9-.9-2.6-.6-4.1.4-1.5.2-3.2-.5-4-.6-.8-.7-1.4-.2-1.4.7 0 2.9-9.8 3.8-16.5.5-4.5 3.3-10.2 7.1-14.9 2.6-3.1 5-5.6 5.4-5.6 1 0 3.2-6 2.2-6-.4 0-.2-.4.5-.8.7-.5 1.4-4.2 1.6-9.7.2-5 .9-10.2 1.5-11.7.6-1.4 1.6-5.5 2.2-9 .7-3.5 1.8-9 2.6-12.3.8-3.3 1.7-7.1 2-8.5 1.5-6.7 3.1-6.9 3.4-.3zm-390 25c0 1.9-1.3.9-1.6-1.2-.1-.8.2-1.3.7-.9.5.3.9 1.2.9 2.1zm291.5 45.3c.3.5.1 1-.4 1-.6 0-1.1-.5-1.1-1 0-.6.2-1 .4-1 .3 0 .8.4 1.1 1zm7.3 2.7c-.5 2.3-2.3 2-2.6-.4-.3-1.8 0-2.1 1.3-1.7.9.4 1.5 1.3 1.3 2.1zm-3.9 6.2c-1.5.5-2.2-.6-1.4-1.9.6-.9 1-.9 1.6.1.5.8.4 1.5-.2 1.8zm-180.9 4c0 .5.8 1.2 1.8 1.4 1.1.3.8.5-.9.6-1.5 0-3.2-.6-3.9-1.4-1-1.3-.9-1.5.9-1.5 1.1 0 2.1.4 2.1.9zm10.7 3.7c-.3.3-1.2.4-1.9.1-.8-.3-.5-.6.6-.6 1.1-.1 1.7.2 1.3.5zm-573 35.6c-.3.7-.5.2-.5-1.2s.2-1.9.5-1.3c.2.7.2 1.9 0 2.5zm547.5 7.7c2.6 2.5 4.8 5.3 4.8 6.3 0 .9.6 1.9 1.3 2.1.9.4.9.7 0 1.4-.8.6-.9 1.4-.3 2.3.8 1.2 1 1.2 1-.4 0-1.7.1-1.7 2.5-.2 2.9 1.9 5.9 2.1 4.9.3-.6-1-.4-1 .7 0 .7.7 3.1 1.3 5.4 1.4l4 .1-3.5 1.2c-1.9.6-4 1.4-4.7 1.9-.6.4-1.3.2-1.6-.5-.2-.7-.2-.3 0 .9.3 1.9-.1 2.3-2.5 2.3-1.5 0-3.3-.5-4-1.2-.7-.7-1.2-.9-1.2-.4 0 .4-1.3-.2-3-1.4-1.6-1.2-3-1.9-3-1.6 0 .3-1.8-.4-4-1.5-2.2-1.2-4-2.5-4-3.1 0-.5-.7-1.7-1.6-2.6-1-1-1.2-1.8-.6-2 .6-.2.8-1 .5-1.9-.5-1.3-.1-1.5 2.1-1.1 2.1.4 2.6.2 2.2-.9-.3-.8-.6-2.1-.6-2.9 0-1.2-.4-1.2-2.5.2l-2.5 1.6v-3.6c0-3.5 0-3.5 2.8-2.4 1.5.6 4.8 3.2 7.4 5.7zm47.9 11.6c.5 7.2.9 8.9 2.4 10.5 1.5 1.7 1.4 1.8-1.7 1.5-1.7-.1-3.4-.7-3.6-1.4-.7-2.1-3.2-1.1-3.2 1.2 0 1.3-.3 2.6-.6 3-.7.7-5.4-1.3-5.4-2.3 0-.4-1.1-.5-2.4-.3-2.3.5-2.4.2-2.4-4 .1-4.8.8-5.1 5.3-2 4.1 2.7 5.9.6 3.3-3.8-1.1-1.7-1-2.3.9-3.9 1.9-1.5 2.7-1.6 4.8-.7 1.4.7 2.5 1.6 2.6 2.2zm49.4 16.5c.3.5-.1 1-1 1s-1.3-.5-1-1c.3-.6.8-1 1-1 .2 0 .7.4 1 1zm-57.2 3c.3 1.1.2 2.2-.3 2.5-.4.3-1-.6-1.2-2-.6-3 .7-3.4 1.5-.5zm62.7 1c0 .5-.5 1-1.1 1-.5 0-.7-.5-.4-1 .3-.6.8-1 1.1-1 .2 0 .4.4.4 1zm12 8.3c0 1.6-3.4 6.6-4.1 6.1-1-.6 2-6.4 3.3-6.4.4 0 .8.2.8.3zm18.8 4.3l2.3.7-2.1 1.9c-1.1 1-2 2.8-2 3.9 0 1.9-.1 1.9-2.5.2-3.1-2.3-3.3-5.3-.2-5.4 2.1 0 2.1-.1.2-.9l-2-.9h2c1.1 0 3 .2 4.3.5zm-649.1 2.6c-.3.8-.6.5-.6-.6-.1-1.1.2-1.7.5-1.3.3.3.4 1.2.1 1.9zm210.3 2.4c0 .8-.5 1.2-1 .9-.6-.4-.8-1.1-.5-1.6.9-1.4 1.5-1.1 1.5.7zm283 7.6c0 .4-.4.8-1 .8-.5 0-1-.4-1-.9s-.3-1.8-.6-2.8c-.5-1.6-.4-1.6 1 .1.9 1.1 1.6 2.3 1.6 2.8zm-8 5.1c0 1.8-.2 1.9-1 .7-1.3-2-1.3-4.3 0-3.5.6.3 1 1.6 1 2.8zm-469.5 6.5c-.5.4-1 1.5-1 2.4 0 1-.4 1.9-1 2-1.6.3-1.9-3.4-.3-4.3 1.6-1.1 3.7-1.2 2.3-.1zm529.6 16.4c.9 1.2 1.5 3.5 1.4 5.2-.2 2.3.4 3.7 2.3 5.3 1.4 1.3 3.1 2.3 3.9 2.3.7 0 1.3 1.1 1.3 2.5 0 1.7.8 2.9 2.5 3.7 1.4.6 2.5 1.5 2.5 2 0 .4.7.8 1.6.8 1.3 0 1.5.7 1 3.5-.5 2.7-.2 3.9 1.5 5.6 1.6 1.6 1.8 2.3.9 2.9-.7.5-1.9.6-2.7.3-1.5-.6-1.6-.2-.7 2.2.5 1.3.9 1.4 1.5.4 1.2-2 1.7-.8 1.2 2.8-.3 1.8-.9 3-1.4 2.7-.5-.3-.9.2-.9 1.1 0 .8-.7 1.8-1.5 2.1-.8.4-1.5 1.4-1.5 2.3 0 1-1.1 2.8-2.5 4.1l-2.6 2.4-.5-2.1c-.3-1.2-1.3-2.1-2.2-2.1-1 .1-2.7-.2-4-.6-1.9-.6-2.4-.4-2.9 1.2-.3 1.2-1.2 2.3-2 2.6-2.1.9-6.3-.4-6.3-1.9 0-1.2-2.1-2.5-4.1-2.5-.5 0-.9.6-.9 1.4 0 3.9-5.6 4.2-6.2.3-.2-1.5-.9-2.1-2.2-1.9-2.6.5-3.8-1.8-1.9-3.7 1.4-1.4 1.3-1.6-1.6-2.4-2.3-.5-3.1-1.3-2.7-2.3.3-.7.1-1.4-.4-1.4-.6 0-1-1.3-1-2.9 0-3.5-1.5-4.8-3.5-3.1-.8.7-1.5.8-1.5.4 0-.5 1-1.5 2.1-2.3 1.8-1.1 2.3-1.1 3 .1.6.9.9 1 .9.1 0-.7-1.3-2.5-3-4-3.5-3.1-3.7-3.9-1-4.6 1.1-.3 1.8-.2 1.5.2-.2.5.8.8 2.4.7 2.4-.1 2.6-.4 1.8-1.8-1.4-2.2.7-4.8 3.3-4.1 1.1.3 2 0 2-.6s.7-1.1 1.5-1.1c1.8 0 1.8-.1.4 3.9-.6 1.7-1.6 3.1-2.3 3.1-.6 0-1.1 1.4-1.1 3.2 0 2-.5 3.2-1.2 3.1-.6-.1-1.4.4-1.7 1.2-.3.9 0 1.5.9 1.5 1.7 0 5.6 4 5 5.1-1.1 1.7 1.5 5.9 3.6 5.9 1.2 0 2.3.8 2.6 1.8.3 1.4 1.5 1.9 4.9 2.1 4.7.1 8.8-1.4 7.9-2.9-.9-1.4.6-4 2.4-4.1 1.2 0 1-.3-.6-1.1-1.3-.6-2.3-1.6-2.3-2.3 0-.6-.8-2-1.8-3.1-3.7-4-6.1-8.2-6.7-11.4-.7-4.2-1.2-5-3.1-5-2.9 0-1.4-3.9 2.4-5.9 1.2-.6 2.2-1.8 2.2-2.5 0-.8.6-1.6 1.4-1.9 1.1-.4 1.2-1.4.6-4.1-.5-2.2-.4-3.8.4-4.6 1.5-1.5 5.8-.3 7.7 2.2zM773 1374.9c0 .5-.9 1.1-2 1.4-2.2.6-2.8-.8-.7-1.6 1.9-.8 2.7-.8 2.7.2zm165.1 35.8c1.2 1.5 1.2 1.6-.4 1-1-.4-2.3-.7-2.8-.7s-.9-.5-.9-1c0-1.6 2.6-1.2 4.1.7zm-119.1 2.8c0 .8-.7 1.5-1.5 1.5s-1.5-.7-1.5-1.5.7-1.5 1.5-1.5 1.5.7 1.5 1.5zm118.9-.9c2.3.5 3.1 1.2 3.1 2.9 0 2.7 4.7 5.6 5.9 3.7.4-.7 2.2-1.7 4-2.2 4.8-1.4 9.3 1.1 8.9 4.8-.3 2.3-.8 2.7-3.9 3-3 .3-4.1-.2-5.8-2.4-1.5-1.9-2.1-2.2-2.1-1 0 .9-.3 1.6-.7 1.6-.5 0-2.1 1.3-3.8 2.9l-3 2.8-3.5-1.7c-3.8-2-6.5-5.5-5.4-7.1.3-.6-.2-1.9-1.2-3-.9-1-1.5-2-1.3-2.2.2-.1 1.3-.7 2.4-1.4 2.4-1.4 2.5-1.5 6.4-.7zM849 1418c2.4 3.4 1.9 5-1.5 5-2.5 0-3.4-1.9-2.7-5.8.6-3 1.6-2.8 4.2.8zm-29.5 3c-.3.5-1 1-1.6 1-.5 0-.9-.5-.9-1 0-.6.7-1 1.6-1 .8 0 1.2.4.9 1zm237.1 3.7c2.4 1.6 4.3 3.6 4.4 4.5 0 2.2 3 2.4 3 .3 0-.8.4-1.5.9-1.5s1.2-1.1 1.5-2.4c.3-1.3 1.3-2.7 2.2-3 2.3-.9 5.4.2 5.4 1.9 0 .8 2.3 2.1 5.4 3.1 5 1.6 5.6 2.1 7.4 6.4 1.2 3 2.7 4.9 4.1 5.3 1.3.3 2.1 0 2.1-.7s.9-2.1 1.9-3c1.9-1.7 2.1-1.7 5 .5 1.7 1.3 3.1 2.6 3.1 3 0 .4 2.1 1.9 4.6 3.3 4.1 2.3 4.8 2.4 5.8 1.1 1.7-2.4 7.3-.9 8 2.1.7 2.7 3.7 3.2 5.6 1 .6-.8 1.7-1.3 2.5-1 .7.3 1.6.1 1.9-.5.4-.6 1.3-.8 2-.5 1.4.5 4.1-1.6 4.8-3.7.2-.7 2.9-1.3 6.1-1.5 4.5-.2 5.7 0 5.7 1.2s.8 1.3 3.5.8c4.5-.8 7.4 0 10.4 2.7 1.3 1.2 4.2 3.2 6.5 4.4 2.3 1.2 5.1 2.7 6.1 3.3 1.1.6 3.2 1.3 4.8 1.7 1.5.3 2.7 1.1 2.7 1.9 0 .8 1.6 1.6 4 2 2.2.3 4 1 4 1.5s2.2 3.2 4.8 6c3.6 3.9 5.8 5.3 8.6 5.8 4.2.7 6.4 3.9 6 8.5-.3 3.1 1.2 4.6 2.9 2.9.6-.6 1.8-1.1 2.6-1.1 1.3 0 1.4.2.2.9-1.1.7-1.1 1.3.3 3.2 2.4 3.4 2.2 12.5-.3 14.1-1.6 1-1.7 1.6-.8 3.7.6 1.4 1.9 3.5 2.9 4.7 1 1.1 1.8 2.5 1.8 3.1 0 .6.6 1.4 1.3 1.6.6.3.1.6-1.3.6-2.5 0-8-3.9-8-5.9 0-1.4-2.6-1.3-5.1.2-1.8 1.1-2.3 1-3.3-.5-.6-1.1-3.9-4.8-7.2-8.3l-6.2-6.3-1.5 3c-1.1 2.3-1.6 2.7-2 1.5-1.2-3.1-2.5-1.5-2.5 2.9 0 4.5-2.2 8.2-4.2 7-1.1-.7-.2 2.3 1.3 4.2.9 1.2-.3 3.7-2.7 5.4-1 .8 1.9 4.1 5.2 5.8 1.2.6 2.2 2 2.2 3.1 0 2.4-2.2 3.9-2.9 1.9-.2-.8-2.2-3.2-4.3-5.3-2.5-2.6-3.6-4.5-3.3-5.7.4-1.2-.5-2.3-3.1-3.8-4-2.4-5-2-5.6 1.9-.2 1.9-.8 2.4-2.5 2.2-2-.3-2.2 0-1.4 2 .5 1.3 1.5 2.2 2.1 2 .7-.2 1.9.6 2.7 1.8.8 1.1 3 2.7 5 3.5 1.9.8 3.3 2 3.1 2.7-.6 1.6-3.4 2.2-5.6 1.2-4.1-1.8-7.7.2-8.6 4.6-.4 2.1-1.1 3-2.5 3-1 0-2.4.7-3.1 1.5-1.5 1.8-5.6 2-6.4.2-.3-.8-.8-.7-1.6.5-1.5 2.4-2.6 2.3-3.3-.2-.6-2.4-4.7-2.8-4.7-.5 0 .8-.5 2.4-1.2 3.5-1 1.5-.9 2.6.5 5.5 2.4 5 2.3 10.5-.2 10.5-1 0-2.1-.9-2.4-2-.4-1.4-1.4-2-3.2-2-2.7 0-2.7.1-2 4.2.4 2.4.7 5 .7 5.8.1.8.4 1.9.8 2.5.5.5.2 1.6-.5 2.2-.9.8-1.6.9-2 .3-1.3-2.2-3.7-.8-5.2 3-1.8 4.6-2.8 4.9-6 1.8-2.6-2.4-2.8-4.6-1.2-9.3 2.1-5.7-1.2-11.5-3.4-6.1-.7 1.8-.8 1.8-2.7.1-1.1-1-1.7-2.2-1.4-2.6.3-.5-.3-2.5-1.2-4.4-2.5-5.2-4.2-3.1-2.6 3.2 2 7.9 1.9 15.4-.3 18.7-1.9 2.8-1.9 2.8-2.9.7-.6-1.4-.5-3 .2-4.6 1.1-2.3.9-2.7-1.4-3.5-1.4-.6-3.4-1-4.4-1-1 0-2-.7-2.4-1.5-.4-1.1-1.3-1.4-3.1-.9-1.5.4-3.2.1-4.1-.7-1.4-1.1-1.9-1-3.3.7-.9 1.1-2.2 1.9-2.9 1.6-.7-.2-1.2.6-1.3 2v2.3l-1-2.3-.9-2.4-2.6 2.1c-1.5 1.2-3.3 2.1-4.1 2.1-.7 0-1.8 1.1-2.3 2.5-.5 1.4-1.4 2.5-1.9 2.5-.6 0-.8-.6-.5-1.3.3-.8-.9-1.9-2.8-2.8-3-1.3-3.3-1.7-3-5.2.3-3.3 0-3.8-1.5-3.5-1 .2-1.9 1.2-2.1 2.4-.2 1.6-.9 2-3.5 1.8-1.8-.2-4.2.4-5.4 1.2-1.2.7-2.9 1.1-3.8.8-.8-.4-2.3 0-3.2.7-1.3 1.1-1.7 1.1-2 .1-.3-.6-.9-1-1.4-.6-.6.3-.7-1.7-.3-5 .5-3.9.3-5.6-.5-5.6-.6 0-1.1.5-1.1 1.1 0 2.5-7 8.9-9.6 8.9-1.3 0-.1-1.9 1.6-2.3 2.1-.5 3.6-4.7 2.5-7.4-.6-1.7-.7-1.7-2 0-.8 1.1-2.3 1.7-3.6 1.5-2.5-.3-3.9-2.8-1.6-2.8 1.4 0 4.4-3.6 4.9-6 .3-1.1-2.6-1.5-8.7-1.1-2.3.1-5.5 4.8-5.5 7.9 0 1-1.1 3-2.4 4.4-1.2 1.4-2.6 3.4-3.1 4.4-.6 1.8-.8 1.7-1.6-.4-.7-2-2-2.7-4.1-2.3-.5 0-.8-1.5-.8-3.4 0-2-.7-5-1.6-6.7-1.1-2.2-1.3-3.3-.5-4.1 1.6-1.6 1.3-4.5-.5-5.5-1.2-.7-1.5-1.7-1-3.9.6-2.5 1.1-2.9 3.1-2.5 1.6.3 3.4-.4 5.5-2.1l3-2.6-2.7-2.5c-3.4-3.2-3.4-3.2-6.3-.1-3 3.2-3.8 3.1-4.2-.2-.5-4.4-2.6-3.8-4.9 1.4-3.8 8.7-7.3 15.3-8.1 15.3-.4 0-.5-.6-.3-1.3.3-.6.1-1.9-.5-2.7-.7-1.2-1.2-1.2-2.2-.2-.6.6-2.2 1.2-3.4 1.2-1.8 0-2.3-.7-2.6-4.1-.3-3.5 0-4.3 2.3-6 1.5-1 3.4-1.9 4.3-1.9.9 0 1.9-.8 2.2-1.8 1.2-3.8 2.8-6.2 7-10.8 2.4-2.6 4.4-5.2 4.4-5.7 0-1.6-7.4 3.4-11.5 7.8-3.4 3.7-4.3 4.2-6.2 3.5-2.6-1.1-3-3.2-.8-5 2.1-1.7 1.9-5-.3-5-1 0-3.1 1.5-4.8 3.3-2.7 2.8-3.1 3.9-3.1 9 0 6.5-.9 8-5 7.9-3.5 0-5 1.2-5.8 4.6-.7 3.2-3.3 6.5-5.7 7.5-1 .3-1.8 1.5-1.8 2.6s-.4 2.3-1 2.6c-.5.3-1 .1-1-.6 0-.6-.9-.1-2 1.2l-1.9 2.4-.1-2.7c0-1.7 1.3-4 3.5-6.4 1.9-2 3.5-4 3.5-4.5 0-.4 1.8-2.9 4.1-5.5 2.7-3.2 3.7-5 3-5.7-.7-.7-1.6-.6-2.7.4-1.5 1.2-1.6 1.2-.9-1 .6-2.1.5-2.2-1.7-1.6-3.3 1.1-6.5 3.4-7.2 5.1-.7 1.8-2.6 1.8-2.6 0 0-1.1-.5-1.2-2.5-.3-1.6.8-2.7 2.3-3.1 4.5-.4 1.9-1.3 3.6-2 3.9-1.6.6-1.9 4.3-.3 4.3.5 0 .7.4.4 1-1 1.6-3.3 1.1-3.7-.7-.2-1.1-1.3-1.8-2.8-1.8-1.7 0-2.5-.5-2.4-1.7.1-1-.7-2-1.7-2.3-1.1-.4-1.9-1.3-1.9-2.1 0-1.8-2-1.8-4.4.1-2.6 2-3.8 1.9-3.4-.2.4-2.3-3.2-3-4.8-.8-1.5 2-1.9 1.4-3.4-5.7-1.1-5-1.1-6 .4-8.2l1.6-2.6h-3.4c-1.9 0-4.1-.3-5-.6-1.1-.4-1.6-.1-1.6 1 0 1.9-3.5 2.2-4.6.4-1.1-1.8-.6-8.8 1.2-14.7.9-3 1.3-6.7 1-8.2-.3-1.7 0-3.2.9-3.9.8-.7 1.5-2.1 1.5-3.1 0-2.5-3.4-2.5-8.3 0-2.9 1.5-3.7 1.6-3.7.5 0-.8-.9-1.9-2-2.6-1.1-.7-2-1.8-2-2.4 0-.7-.6-1.4-1.4-1.7-.7-.3-1.7-1.8-2-3.3-.4-1.5-1.7-4.1-2.8-5.7-1.7-2.4-1.9-3.3-1-4.8 1.7-2.6 1.5-3.6-.8-4.2-1.1-.3-2-1.3-2-2.2 0-.9.5-1.3 1-1 .6.3 1 0 1-.7 0-2.1-5.8-1.3-8.4 1.1-3.2 3-4.6 2.6-4.6-1.2 0-1.8-.7-4.2-1.5-5.3-1.9-2.5-1.9-6.3.1-8.5 2.1-2.4.8-4.2-2.7-3.7-2.1.3-3 0-3.4-1.3-.8-2.3.9-5.5 3.5-6.9 1.5-.8 2.1-.6 3 .9.5 1.1 1 3.1 1 4.4 0 1.4.7 2.8 1.6 3.1 2.3.9 3.6.7 3-.3-.4-.5.3-.7 1.4-.4 1.1.3 2 0 2-.6s1.1-1.6 2.5-2.1c2.3-.9 3.7-5 1.6-5-.4 0-.6-1.2-.3-2.7.5-2.5.6-2.5 1.3-.8.7 1.8.8 1.7.9-.5.1-2.2.2-2.3 1.1-.7.7 1.2.7 2.7.1 4.6-.8 2.3.2 6.3 2.3 8.9.6.7 3.4-1.1 3-1.9-.6-.8 2.6-2.9 4.4-2.9.6 0 1.1.7 1.1 1.5 0 1.1.9 1.5 2.8 1.3 3.5-.2 5.3.8 4.5 2.7-.9 2.4 2 1.7 4.6-1 1.8-2 2.7-2.3 3.7-1.4.8.6 1.4 1.8 1.4 2.5 0 .8.5 1.4 1 1.4.6 0 1 .7 1 1.5s-.4 1.5-1 1.5c-1.3 0-1.3 3.7 0 4.5.5.3 1.9.1 3-.5 1.8-.9 2-.8 2 1.5 0 1.8.5 2.5 1.9 2.5 1.1 0 2.2-.4 2.5-.9.6-.9 8.4-2.3 12.8-2.2 2.6 0 4.4-2.2 3.3-4-1-1.5 2.6-5.9 4.9-5.9 3.2 0 3.9-1.1 2-3.1-2.2-2.4-.8-4.6 1.6-2.4 1.4 1.2 1.6 2.4 1 5.7-.9 4.9-.4 7.2 1.3 5.7 2.5-2 8.8-5.9 9.7-5.9.6 0 .5-1.1-.1-2.6-1.1-3-.2-4.8 1.1-2.3.7 1.2 2.1 1.4 6.9.9 4.5-.4 6.5-.2 7.5.8 1.7 1.8 4 .6 3.1-1.6-.3-.9-.3-1.3.1-1 .3.4 1.6-.7 2.8-2.5 1.2-1.8 3.5-3.9 5.1-4.7 3.1-1.5 14.5-2.1 14.5-.8 0 .5.6.8 1.4.8.8 0 1.9 1.4 2.5 3.1l1.1 3.1 8.7-.7c7-.5 9.2-1.1 10.5-2.7 1-1.1 2.2-1.7 2.8-1.3.5.3 1 .2 1-.4 0-.6 1.2-.8 3-.5 2.2.5 3 .3 3-.7.1-1 .4-.8 1.1.3 1.4 2.5 2.8 2.2 3.9-.7.6-1.5 1.7-2.5 2.9-2.5 1.1 0 2.3-.5 2.6-1 .9-1.5 3.5-1.2 3.5.4 0 1.7 2.7 2.9 3.5 1.6.3-.5.3-2-.1-3.4-.3-1.4-.3-3 .1-3.5 1.1-1.9 5.6-1.2 10.1 1.6zm-207.9 6.7c-.7 2.1-4.2 1.2-4.5-1.2-.3-2.1-.2-2.1 2.3-1 1.4.6 2.4 1.6 2.2 2.2zm309.2 4.7c-.7.4-1.8.5-2.6.2-1-.4-1.1-.9-.2-1.9.9-1.1 1.5-1.2 2.6-.3 1.1.9 1.1 1.4.2 2zm-308.1 1.6c.6 1.1.6 2.8.1 4.1-.7 1.9-1.2 2.1-2.9 1.2-1.9-1-2.7-4.9-1.3-6.3 1.2-1.3 3.2-.7 4.1 1zm84.4 4.8c.3 1.4.1 2.8-.3 3.1-.5.3-.9-.4-.9-1.5 0-1.2-.5-2.1-1.1-2.1-.5 0-.7-.5-.4-1 1.1-1.7 2.3-1.1 2.7 1.5zm-44.4 56.8c-.4 3-5.3 3.2-5.4.2-.1-1.5.6-2.1 2.8-2.2 2.5-.2 2.9.1 2.6 2zm325.5 15.6c.3 1.4.1 1.8-.9 1.4-1.5-.6-1.8-1.6-.7-2.6.9-1 1-.9 1.6 1.2zm-234.3 11c0 .5-.7 1.4-1.5 2.1-1.2 1-1.5 1-1.5-.2 0-.8.3-1.8.7-2.1.9-1 2.3-.9 2.3.2zm-9.1 13.5c-.7 1.4-1.6 2.6-2.1 2.6-1.5 0-.8-3.9.9-4.9 2.4-1.3 2.6-.8 1.2 2.3zm-30.7 2.8c-.6.6-1.5.9-1.8.5-.4-.3-.4-1.4 0-2.3.5-1.3.9-1.5 1.8-.6s.9 1.5 0 2.4zm52.5 2.1c-.3 1.1-4.7 2.1-4.7 1.1 0-.4.8-1.3 1.7-2 1.9-1.3 3.6-.9 3 .9zm153.3 8.1c0 .8-.4 1.8-1 2.1-.5.3-1-.3-1-1.4 0-1.2.5-2.1 1-2.1.6 0 1 .6 1 1.4zm6.5-.4c.3.5.1 1-.4 1-.6 0-1.1-.5-1.1-1 0-.6.2-1 .4-1 .3 0 .8.4 1.1 1zm-131.3 7.2c-.9.9-1.2.7-1.2-1.2s.3-2.1 1.2-1.2c.9.9.9 1.5 0 2.4zm-66.5 2c-.3.7-.5.2-.5-1.2s.2-1.9.5-1.3c.2.7.2 1.9 0 2.5zm66.3 2.5c0 2.6-1.6 4.7-2.9 3.9-1.4-.9-1.4-2.9.1-4.4 1.7-1.7 2.8-1.5 2.8.5zm4.3 4c.4.3 0 1.5-.9 2.5-1.3 1.4-2 1.5-3.1.7-1.1-1-1-1.4.4-2.5 2.1-1.5 2.7-1.7 3.6-.7zM807 1580.4c0 .3-.4.8-1 1.1-.5.3-1 .1-1-.4 0-.6.5-1.1 1-1.1.6 0 1 .2 1 .4zm41 28.7c.7 1.1.9 2.3.6 2.6-.3.4-.2 1.1.3 1.7 1.4 1.8 2.2 6.6 1.1 6.6-.5 0-1-.6-1-1.4 0-.7-.7-1.9-1.6-2.7-1-.8-1.4-2.4-1.2-4.6.3-2.5.1-3.2-.9-2.9-.7.3-1.3.1-1.3-.4 0-1.8 2.9-1 4 1.1zm21.3 10c.4 1.6.3 1.8-.9.8-.7-.6-1.1-1.5-.8-2 .8-1.3 1.1-1.1 1.7 1.2zm4.5 8.6c0 9.6-.3 10.4-3.8 9.1-1.7-.5-3-1.4-3-1.9s-.9-.9-2-.9-2-.2-2-.5c0-1.3 5.4-5.5 7-5.5 1.6 0 2-.7 2-3 0-1.7.4-3 .9-3s.9 2.6.9 5.7zm464.2 23.4c0 .6.7.9 1.5.5.9-.3 1.5 0 1.5 1 0 2.2-4.4 1.4-4.8-.9-.2-.9.1-1.7.7-1.7s1.1.5 1.1 1.1zm-449 11c0 2.5-.4 2.4-3.5-.6-2-2.1-2.3-2.8-1.2-4 1-1.2 1.5-1.1 3 .7.9 1.1 1.7 2.9 1.7 3.9zm439.9 2.6c-.2 2.7.1 5.9.6 7.3l.9 2.5.6-2.5c.4-1.6 1.2-2.4 2.2-2.2.9.1 1.9-.2 2.3-.8.3-.5.1-1-.4-1-.6 0-1.1-.5-1.1-1 0-1.8 1.7-1 5.6 2.6 3.5 3.1 3.7 3.6 2.2 4.5-2.8 1.5-2.1 2.7 1.2 2.3 2-.2 3 .1 3 1 0 1.6-3.7 2.8-4.6 1.5-.7-1.2-2.4-.2-2.4 1.5 0 .7 1.7 1.7 3.7 2.2 4.2 1 5.4 2.9 2.4 3.9-1.2.4-2.1 1.5-2.1 2.6s.4 1.8.9 1.4c.5-.3 1.2-.1 1.6.5.3.5-.3 1-1.4 1-2.5 0-3.7 1.8-2.2 3.3.8.8 1.1.8 1.1-.1 0-.6.6-.9 1.4-.6 1.1.4 1.3 1.2.6 2.9-.5 1.3-.6 2.6-.3 2.9.4.3.1.6-.5.6-.7 0-1.2-.5-1.2-1 0-.6-.4-1-1-1-.5 0-1 1.8-1 4 0 2.5-.6 4.2-1.6 4.8-1.4.8-1.4 1 0 2.5.9.8 1.6 2 1.6 2.6 0 .6.5 1.1 1 1.1.6 0 1 2.2 1 5 0 2.7-.4 5-1 5-.5 0-1 1.1-1 2.5 0 1.8.5 2.5 1.9 2.5 2.1 0 3.7 1.7 4.2 4.4.3 1.2 1.3 2 2.7 2.1 2.2.2 4.1 1.9 4.2 3.7 0 .5-1.3.8-3 .8-2.2 0-3 .5-3 1.7 0 1.4.2 1.5.9.4s1-1.1 1.7 0c.4.7.3 1.4-.4 1.7-.7.2-1.2 1.2-1.2 2.3 0 1.2-.7 1.9-1.9 1.9-3.2 0-3.5 2-.4 2.1 2.5 0 2.6.1.7.9-1.2.4-2.4 1.5-2.7 2.4-.4.9-1.3 1.6-2.2 1.6-.9 0-1.5.9-1.5 2.5 0 1.8.5 2.5 2 2.5 1.1 0 2 .7 2 1.5s-.8 1.5-1.8 1.5c-4.5 0-3.4 4.6 1.2 5.4 1.8.4 4.1 1.3 5.2 2.2 1.6 1.3 1.7 1.5.2 1-1.3-.4-1.8 0-1.8 1.4 0 1.1.6 1.9 1.3 1.7.6-.1 1.2.4 1.2 1.2 0 1.8-3.2 2.3-5.8 1-1.5-.9-1.9-.7-2.4 1-.5 2.1-3.3 3-3.3 1.1 0-.6.5-1 1-1 .6 0 1-.7 1-1.5 0-1.3-.3-1.3-2-.3-1.3.8-2 2.4-2 4.3 0 4.3-1.5 6.3-2.9 3.9-1-1.8-1-1.7-1.1.4 0 2.3-4.5 7.1-6.7 7.2-1.4 0-1.8 3-.5 3 .5 0 .7 1.3.4 3-.4 3.1.6 3.8 2.6 1.8.9-.9 1.7-.8 3.7.2 2.7 1.4 3.5 3.6 1 2.7-1.1-.5-1.3 0-.8 2.3.3 1.9.1 3-.6 3-.6 0-1.1.7-1.1 1.5 0 .9-.9 3.3-1.9 5.4-1.1 2.1-1.7 4.8-1.4 6 .3 1.4.1 2.1-.8 2.1-.8 0-2 .9-2.7 2-1.1 1.7-1 2.3.3 3.7 1.8 1.7 1.3 6.2-.8 7.5-.8.5-.6.9.6 1.4 1.4.5 1.5.9.6 2-.6.8-1.8 1.4-2.5 1.4-1.4 0-1.8 1.2-1.5 3.7.1.8-1 1.3-2.9 1.3-1.6 0-3 .4-3 1 0 .5.5 1 1.1 1 .8 0 .9 1.1.5 3.2-.4 2.3-.3 2.8.3 1.8.6-.8 1.3-1.1 1.7-.7.4.4.2 1.3-.4 1.9-.7.7-1.2 2.5-1.2 4 0 1.8-.5 2.8-1.5 2.8-.9 0-1.8.7-2.1 1.5-.4.9-1.9 1.5-3.9 1.5-3.3 0-6 2-3.7 2.8.7.2 1.2 1 1.2 1.8s.5 1.4 1 1.4c.6 0 1-.7 1-1.5 0-1.7.2-1.8 2.4-.9 2 .8 2 2.8 0 4.8-2.1 2.1-3.1 2-3.7-.4-.7-2.8-4.5-2.6-5.7.2-.8 2.2-.9 2.2-.9.2-.1-1.5-1.1-2.4-3.8-3.2-5-1.4-13.5-2.5-10.8-1.4 1.9.9 1.9.9 0 2-1.7 1-1.8 1.3-.5 2.2.8.5 2.5 1 3.8 1 1.2 0 2.5.7 2.8 1.5.4.8 1.7 1.5 3 1.5s2.4.6 2.4 1.3c0 .7 1 1.7 2.3 2.2 2.9 1.3 2.6 2.6-.9 4.7-4 2.3-4.5 2.2-3.8-.7.5-1.8.2-2.5-.9-2.5-.8 0-1.7.6-2 1.2-.4 1-.7 1-1.7.1s-1-1.5-.1-2.6c1.7-2.2-4.3-4.6-7.1-2.8-1.1.7-2.3.9-2.6.5-.4-.4-.1-.9.6-1.1.7-.3 1.2-2.2 1.2-4.4 0-3.5-.3-3.9-2.5-3.9s-2.5.4-2.5 4c0 2.5-.5 4-1.2 4-1.6 0 4.3 4.9 5.9 5 .6 0 1.5-.9 1.8-2 .8-2.6 2.2-1.7 3 2 .4 1.7 1.3 3 2.1 3s1.4.7 1.4 1.7c0 1.5-.1 1.5-1.8 0-1-1-2.4-1.7-3-1.7-.7 0-1.2-.5-1.2-1.2 0-.6-.3-.9-.6-.5-.8.8 2.6 6.7 5.1 8.9 2 1.8 2 1.8-.5 1.5-1.9-.1-2.5.3-2.6 1.8-.2 3.1-1.5 5.5-3 5.5-.8 0-1.4.6-1.4 1.2-.1 2.9-1.7 4.1-3.9 2.9-1.9-1.1-2-1.4-.6-2.7 1.8-1.9 1.9-3.6.3-5.2-1-1-1-1.5.1-2.1 2-1.2 4.2-.2 3.9 1.7-.2.9.5 1.8 1.5 2 1 .2 1.7-.3 1.7-1.2 0-.9-.4-1.6-.9-1.6s-.8-1.1-.8-2.5c0-3.5-2.7-6.2-6.3-6.3-2.8-.1-3 .2-3 3.5 0 3-.3 3.4-1.7 2.8-1-.4-2.5-.8-3.3-.8-.8 0-1.8-.5-2.2-1-.4-.6-1 .2-1.4 1.8-.4 1.5-1.9 4-3.5 5.4l-2.7 2.5 2.1 1.9c1.8 1.5 1.9 2 .7 2.7-2.4 1.5-4 1.2-4-.8 0-1-1.1-2.9-2.5-4.2-1.7-1.6-2.3-3-1.9-4.4.4-1.7.3-1.8-.5-.6-.9 1.3-1.2 1.2-1.7-.8-.4-1.2-1.3-2.2-2-2.2-1.7 0-1.7 0 .2-3.9.8-1.7 2-2.9 2.5-2.6.5.4.9.2.9-.4 0-.5-.4-1.2-.9-1.5-1.6-1-3.9.5-5.1 3.4-.7 1.7-1.7 2.7-2.5 2.4-.7-.3-1.6 0-2.1.7-.4.7-.2 1.5.4 1.7.7.2.9.9.5 1.5s-.8 3.3-1 5.9c-.2 3.7.1 4.8 1.2 4.8.8 0 1.6.8 1.6 1.7.6 7.5.6 7.6-.8 5.7-.7-1-1.3-2.1-1.3-2.5 0-.4-1.7-.9-3.7-1.1-2.8-.4-4.6.1-6.8 1.6-1.6 1.1-3.6 2-4.2 1.8-.7-.2-1.3.6-1.3 1.8 0 1.1.5 2 1 2 .6 0 1 .7 1 1.5s-.4 1.5-1 1.5c-.5 0-1-.5-1-1 0-.6-.6-1-1.4-1-.8 0-1.6-.5-1.8-1.2-.7-2.1-3.7-.1-3.1 2.1.4 1.5.1 2.1-1.1 2.1-.9 0-1.6-.7-1.6-1.5 0-1-1.1-1.5-3.2-1.6-1.8-.1-2.5-.3-1.5-.6 2.5-.7 1.6-2.6-1.4-3-1.6-.2-3.2.4-4.4 1.7-1.6 1.8-1.7 2-.1 2 1.5 0 1.5.2 0 2.5-1.5 2.4-1.2 4.5.7 4.5.5 0 1.5-1.1 2.1-2.5 1.2-2.8 2.8-3.3 2.8-1 0 .8.7 1.5 1.5 1.5s1.5.4 1.5 1c0 1.7-3.9 5-5.8 5-2.8 0-3.3 1-1.6 3.4 1.6 2.5 1 3.6-1.8 3.6-1 0-1.8.7-1.8 1.5 0 2.1-3.6 3.8-5.7 2.6-1-.5-2.6-.5-3.9-.1-2.5 1-6.3.8-8.2-.4-.7-.4-1.6-.5-2-.2-.4.3-1.6-1.1-2.7-3-2.1-4-5.4-4.7-5.6-1.2-.1 1.7-.2 1.9-.6.5-.2-.9-1.1-1.7-1.8-1.7-.8 0-1.2-.6-.9-1.4.3-.7-.7-2.6-2.1-4.2-2.2-2.4-2.9-2.6-4.6-1.6-1 .7-1.9.8-1.9.3s.6-1.1 1.4-1.4c.7-.3 1.7-2.6 2-5.1.7-4.5 1.8-5.7 3.2-3.5 1.1 1.9 2.3-1.1 1.9-5.2-.3-3.5-.1-3.9 3.4-5.6 3.6-1.8 3.7-1.9 1.9-3.8-2.4-2.5-2.3-4.3.4-4.7 1.4-.2 2.4-1.2 2.8-2.8.4-1.6 1.2-2.4 2.3-2.2 1.2.2 1.9-.6 2.4-3l.7-3.3.7 3 .7 3 .1-2.8c.2-5.1 3.1-2.8 3.5 2.8.1 2.9.4 3 2.7.9 1.9-1.7 5.5-1.2 4.4.7-1.2 1.9.4 7.4 2.6 8.7 1.9 1.2 2 1.1 1.4-.7-.3-1.1-.2-2.9.4-3.8.8-1.4 1.1-1.5 1.2-.3.1.8.1 2.1 0 2.7-.1.8.9 1.3 2.4 1.3 2.5 0 3.5-1.5 1.3-2.2-.6-.2-.8-1-.4-1.6 1-1.7 2.6-1.5 2.6.3 0 .8.8 1.5 1.9 1.5 2.4 0 9.2 2.9 6.9 3-2.5 0-2.2 1.7.3 2.3 2.5.7 5.7-1.1 6.5-3.5.3-1 1-1.8 1.5-1.8 2 0 .7-1.8-1.7-2.4-3.3-.9-2.2-2.1 1.8-2.1 1.7 0 3.3-.5 3.5-1.1.4-1.3-2.8-2.4-7.4-2.4-3 0-3.3-.3-3.5-3.3 0-1.7 0-4.4.1-6 .3-3.4-.9-3.4-3.7-.2-1.2 1.4-2.6 2.5-3.1 2.5s-.8.8-.7 1.7c0 1-.5 1.7-1.3 1.5-.7-.1-1.9.2-2.6.8-1.2 1-6.6.4-9.6-1.1-1.5-.8-1.5-1.3-.2-5.4 1.1-3.2 2.1-4.5 3.4-4.5 1.1 0 3.8-.6 6-1.3 3.7-1.1 4-1.4 3.7-4.3-.2-1.7.2-3.6.9-4.3.7-.6 1.3-2.6 1.3-4.4 0-3.6 1.5-5.7 4.1-5.7 1.5 0 3.1-2.1 3.3-4.4.1-1.4 2.3-1.8 3.1-.6.5.8 1.1.8 2.1-.1.8-.6 1.4-.8 1.4-.4 0 .5.9 0 2-1 1.2-1.1 2.8-1.5 4.3-1.1 2.1.5 2.3.3 1.9-2.4-.3-2.3 0-3 1.2-3 .9 0 1.5.3 1.5.7-.4 2.3.3 3.3 2.2 3.3 1.2 0 1.7-.4 1.4-1.1-.4-.6.2-1.3 1.4-1.6 1.2-.3 2.1-1 2.1-1.7 0-.6 1.4-2.5 3-4.3 1.7-1.8 3-3.6 3-4 0-.5-2-1.3-4.5-1.9-4.4-1-4.4-1-3.8 1.4.5 2.2.4 2.3-1.4 1.1-2.7-1.6-5.3-.6-4.7 1.9.3 1-.1 2.4-.9 3.1-1.2.9-2.4.7-5.9-1-3.5-1.7-4.4-2.7-4.6-4.9-.3-3.7.5-4.1 5.3-2.4 5.4 1.9 5.6 1.8 4.9-1.2-.6-2.4-.5-2.5 1.3-1.3 2.7 1.6 5.3.6 4.6-1.9-.3-1.3-1.1-1.8-2.2-1.5-2.1.5-4.8-2.2-3.1-3.2 1.7-1 1.1-2.5-1-2.5-1.1 0-2 .5-2 1 0 .6-.7 2.2-1.6 3.6-1.3 1.9-2 2.2-3 1.3-.8-.6-1.4-.8-1.4-.3 0 .4-.5.3-1.2-.4-1-1-.7-1.6 1.1-2.8 1.8-1.3 2-1.8 1-2.5s-1.1-1.1-.3-1.7c.6-.4 1.5-2.2 1.9-3.9.8-3.9 2.1-4.9 4-3.3 2 1.7 4.5-.4 3.8-3.1-.4-1.5.2-2.8 2.1-4.4l2.6-2.2-3.4-2.4c-2.2-1.5-3.1-2.6-2.4-3.1.9-.5.8-1.1-.1-2.2-1.2-1.4-1-1.6.8-1.6 1.1 0 2.1.4 2.1 1 0 .5.5 1 1 1 .6 0 1-.8.8-1.8-.2-1.1.4-1.8 2-2 1.9-.3 2.2.1 2.2 2.7 0 3.8 1.6 4.8 3.1 2 .9-1.8.9-2.5-.2-3.3-1.8-1.4-2.3-7.4-.8-9.2 1.2-1.5 3.3-.9 2.3.7-.3.6-.2 1.8.2 2.7.9 2.2 1.1 2.8 1.3 4.7.2 2.2 2.1 1.8 2.1-.4 0-1.1.3-2.1.8-2.3.4-.2 1.8-2.5 3.2-5.2 1.3-2.7 2.6-4.3 2.8-3.7.2.6 1.2 1.1 2.2 1.1 1.3 0 2-1.2 2.7-4.8.5-2.7 1.4-4.6 2.1-4.5.7.2 1.2-.3 1.3-1 0-.6.4-.1 1 1.1.5 1.3.7 2.8.3 3.3-.3.5.7.4 2.1-.1 1.5-.6 3.7-1 5-1 1.6 0 2.8-.9 3.9-3.2 2.2-4.2 2-4.8-1.1-4.9-1.6 0-2.2-.3-1.5-.6.7-.2 1.2-2.2 1.2-4.4 0-3.2.3-3.9 2-3.9 1.6 0 2 .7 2 3 0 1.6.5 3 1 3 .6 0 1 1.1 1 2.5s.5 2.5 1 2.5c.6 0 1-.6 1-1.4 0-.8.5-1.6 1.2-1.8.7-.3.9-1.2.5-2.2-.4-.9-1.1-1.5-1.6-1.1-.5.3-1.3-.5-1.7-1.7-.4-1.3-.2-2.4.5-2.6 1.6-.5 1.4-7.1-.3-8.8-.8-.8-2.7-1.4-4.3-1.4-2.4-.1-2.5-.2-1-1.1.9-.6 2.7-.7 3.8-.4 1.1.4 2.6.1 3.4-.5 1.2-1 1.5-.9 1.5.4 0 .9-.7 1.6-1.6 1.6-.8 0-1.2.4-.9 1 1 1.7 2.4 1.1 5.2-2 3-3.4 5.3-3.9 5.3-1.1 0 1 .7 2.2 1.6 2.5 2.2.8 3 0 1.6-1.7-1.4-1.6-.6-2.7 2-2.7 1.2 0 1.9.6 1.7 1.7-.3 3.1.1 4.3 1.2 4.3 1.9 0 3.9-2.8 3.9-5.4 0-1.4.5-2.8 1.1-3.1.6-.4.8-1.3.5-2-.2-.7 1.5-3.4 4-6.1 2.5-2.8 4.4-4.2 4.4-3.4.1 1 .9.6 2.5-1.2 1.3-1.6 2.6-2.4 2.9-1.9.4.5 1.5.7 2.6.4 1.4-.4 2 0 2 1.1 0 .9.8 1.6 1.9 1.6 1.4 0 2.1-1 2.5-3.5.7-3.7.1-5.9-1.5-5-.5.4-.9.1-.9-.6s-.6-.4-1.4.6c-1.2 1.6-1.6 1.7-2.9.6-.9-.7-2-1-2.6-.7-.5.4-1.2-.3-1.6-1.4-.3-1.1-1-2-1.5-2-.4 0-.5-1.2-.1-2.8 1-3.3 3.4-3.2 7.4.6 2.2 2.1 2.7 2.2 2.7.9 0-.9-.6-1.7-1.3-1.7-.8 0-2.4-1.1-3.7-2.5-2.3-2.5-6-3.4-6-1.5 0 .5-.7 1-1.5 1s-1.5-.5-1.5-1c0-.6-.7-1-1.5-1s-1.5-.7-1.5-1.6c0-.8.4-1.3.9-1 1.4.9 4.1-.4 4.1-1.9 0-.7-.5-1.5-1.2-1.7-1.3-.5-2.2-4.8-.9-4.8.5 0 1.4.7 2.1 1.5 1.3 1.5 3.4.8 7.4-2.8 2.1-1.8 2.1-1.8 2.4 2.7.4 6.6 2.2 5.7 2.2-1.2v-5.7l2.2 4.2c2.6 5.2 5.1 5.8 4.1 1.1-.4-2.2-.2-3.4.9-4.2 1.2-.9 1.4-2.1.8-5.1-.5-3.1-.9-3.6-1.5-2.2-.4 1.1-1.4 1.6-2.2 1.2-1.2-.4-1.4 0-1 1.5.6 2.4-.5 2.6-2.3.5-.7-.8-1.9-1.5-2.7-1.5-1.2 0-1.3-.3-.5-1.3.7-.9.8-1.7.1-2.7-.8-1.1-1.2-1.2-1.6-.3-.2.7-1.1 1.3-1.9 1.3-.8 0-1.4.4-1.4 1 0 .5.7 1 1.5 1s1.5.4 1.5 1c0 .5-.9 1-2 1s-2-.7-2-1.6c0-.9-.5-1.2-1.2-.8-.7.4-.5-.2.6-1.4 1-1.1 1.6-2.7 1.3-3.4-.3-.8-.6-.6-.6.5-.1 2.5-2.1 1.1-2.1-1.4 0-1.4-.6-1.9-1.7-1.7-1 .1-2.4-.1-3-.5-.8-.5-1.3-.3-1.3.7 0 .8.5 1.7 1 1.9.6.3.5.4-.2.3-.9-.2-1.2-1.8-1-4.6.3-4.7 2.2-6.9 6.1-7 2.4 0 2.5-.6.6-6.8-.7-2-.4-2.2 2.5-2.2 3.2 0 3.2 0 2.9 4.7zm7.6-2.2c0 2.8-2.9 2.5-3.3-.3-.3-1.9 0-2.3 1.5-2 1 .2 1.8 1.2 1.8 2.3zm-15.7 4.7c-.3.7-1.3 1.5-2.3 1.6-1.5.4-1.6.2-.4-1.2 1.7-1.9 3.2-2.1 2.7-.4zm2.9 21.4c-.3.3-1.2.4-1.9.1-.8-.3-.5-.6.6-.6 1.1-.1 1.7.2 1.3.5zm-4.7 3.8c0 .3-.4.8-1 1.1-.5.3-1 .1-1-.4 0-.6.5-1.1 1-1.1.6 0 1 .2 1 .4zm-2 3.6c0 .5-.4 1-1 1-.5 0-1-.5-1-1 0-.6.5-1 1-1 .6 0 1 .4 1 1zm-449.3 2.7c.4 1.2-3.4 2.9-4.4 1.9-.3-.3-.3-1.2.1-2.1.7-1.8 3.7-1.7 4.3.2zm443.3 2.2c0 .6-.4 1.3-1 1.6-.5.3-1-.1-1-.9 0-.9.5-1.6 1-1.6.6 0 1 .4 1 .9zm-432 18.3c0 1.3-2.3.5-2.8-1-.2-.7.2-1 1.2-.6.9.3 1.6 1.1 1.6 1.6zm445-.2c0 1.3-2.8 2.5-3.8 1.6-.3-.4 0-1.1.8-1.6 2-1.3 3-1.2 3 0zm27 1c0 .5-.4 1-1 1-.5 0-1-.5-1-1 0-.6.5-1 1-1 .6 0 1 .4 1 1zm-1.3 7.7c-.3 1-.5.4-.5-1.2 0-1.7.2-2.4.5-1.8.2.7.2 2.1 0 3zm-461.4 1.2c2.3 2.4 2.5 3 1.3 4-1.1.9-1.9.5-3.9-2.1-2.3-2.9-2.7-4.8-.9-4.8.4 0 1.9 1.3 3.5 2.9zm422 4.1c.3 1.1.1 2-.4 2s-.9-.7-.9-1.5-.5-1.5-1.1-1.5c-.5 0-.7-.5-.4-1 .9-1.4 2.1-.5 2.8 2zm-428.5 21.3c.3 1.5 0 1.6-2.2.6-3.2-1.5-3.4-3.2-.4-2.7 1.3.2 2.4 1.1 2.6 2.1zm397.2 4.1c0 .9-.4 1.6-.9 1.6-.6 0-1.2 1.7-1.4 3.7-.2 2.3-.4 1.1-.5-3-.2-6.1 0-6.7 1.3-5.3.8.8 1.5 2.2 1.5 3zm-412.9.9c-1.3 1.3-2.6.3-1.6-1.2.3-.6 1.1-.8 1.7-.5.6.4.6 1-.1 1.7zm38.9 4.7c0 .5-.5 1-1.1 1-.5 0-.7-.5-.4-1 .3-.6.8-1 1.1-1 .2 0 .4.4.4 1zm-36 2.5c0 2.5-1.4 3.4-2.4 1.6-.8-1.2.3-4.1 1.5-4.1.5 0 .9 1.1.9 2.5zm384.7 9.6c.1 2.4 0 3.8-.3 3.1-.3-.6-1.2-1.2-2-1.2-1.9 0-1.8-1.9.1-2.6 1.7-.7 2-3 .5-3.7-.6-.3-.5-.4.2-.3.8.2 1.4 2 1.5 4.7zm10.3-2.1c-1.2 2.2-3 1.8-3-.6 0-.8.9-1.4 2-1.4 1.8 0 1.9.3 1 2zm89.9 8.2c0 1.3-.3 1.7-.6 1-.2-.6-1.5-1.2-2.8-1.2-1.3 0-2.7-.5-3-1-.4-.6.8-1 2.9-1 3.1 0 3.6.3 3.5 2.2zm-8.5 2.9c-.3.5-1 .7-1.5.3-.5-.3-.7-1-.3-1.5.3-.5 1-.7 1.5-.3.5.3.7 1 .3 1.5zm-427.1 6.6c-.8 5.2-1.3 5.4-1.3.5 0-2.3.4-4.2.9-4.2.6 0 .7 1.7.4 3.7zm5.1-1.5c-.3.5-1.2.4-2-.3-1.9-1.6-1.8-1.8.6-1.2 1.1.3 1.7.9 1.4 1.5zm2.3 1c-.3.8-.6.5-.6-.6-.1-1.1.2-1.7.5-1.3.3.3.4 1.2.1 1.9zm411.3 5.4c0 .2-.9.4-2 .4s-2-.4-2-.9.9-.7 2-.4c1.1.3 2 .7 2 .9zm12 .4c0 1.1-.1 2-.3 2-.1 0-1-.9-2-2-1.6-1.9-1.6-2 .3-2 1.3 0 2 .7 2 2zm-6.5 2.6c-.9.7-2.3 1-3.1.7-2.5-.9-1.5-2.2 1.7-2.1 2.8.1 3 .3 1.4 1.4zm7.5 3.4c0 .5-.5 1-1.1 1-.5 0-.7-.5-.4-1 .3-.6.8-1 1.1-1 .2 0 .4.4.4 1zm-16.3 13.2c-.3.8-.6.5-.6-.6-.1-1.1.2-1.7.5-1.3.3.3.4 1.2.1 1.9zm-109.3 15.6c-.4 1.8-1.1 2.9-1.7 2.5-.5-.3-2.2-.6-3.6-.7-3.2-.1-2.5-2.1.8-2.1 1.3-.1 2.9-.8 3.5-1.7 1.4-2.3 1.7-1.7 1 2zm116.3 3.5c.3.4-.8.7-2.5.7-1.8 0-3.2-.4-3.2-.9 0-1.1 4.6-.8 5.7.2zm-96.2 3.7c.3.6-.1.7-.9.4-1.8-.7-2.1-1.4-.7-1.4.6 0 1.3.4 1.6 1zm94.3 1.8c.3 1.7-.2 2.2-1.7 2.2-1.4 0-2.1-.6-2.1-1.8 0-3.8 3.3-4.1 3.8-.4zm-8.9 7.3l.5 4.4.5-4.5c.5-3.7.9-4.4 2.5-4.2 2.1.4 5.7 4.3 4.9 5.4-.2.5-1.5.8-2.9.8-1.5 0-2.4.6-2.4 1.5 0 1.1.7 1.4 2.5.9 3.8-.9 7.5 3.6 4 5-1.1.4-1.5 2-1.5 5.6 0 3.8-.4 5-1.5 5-.8 0-1.5-.6-1.5-1.3 0-2.6-2.5-6.7-4.1-6.7-.9 0-2.2-.7-2.9-1.5-1-1.2-.9-1.6.4-2.1 2-.8 1.1-2.4-1.4-2.4-1.5 0-1.7-.6-1.3-4.3.6-5.8 1.1-6.9 2.6-6.5.6.3 1.4 2.4 1.6 4.9zm-339.6-3.4c-.7.2-1.3 1.3-1.3 2.3 0 1.3-.5 1.7-2 1.3-1.1-.3-2-.9-2-1.3 0-.8 4-2.9 5.5-2.9.6.1.4.3-.2.6zm351.9 1.8c.3 1.4.1 2.8-.3 3.1-.5.3-.9-.9-.9-2.5 0-3.8.6-4 1.2-.6zm-132.2 17.9c0 .7-.7 1.9-1.5 2.6-1.3 1.1-1.5.8-1.5-1.4 0-1.6.5-2.6 1.5-2.6.8 0 1.5.6 1.5 1.4zm115 2.6c0 .5-1 1-2.2 1-1.9 0-2-.2-.8-1 1.9-1.3 3-1.3 3 0zm-137.3 3.6c-.3.3-1.2.4-1.9.1-.8-.3-.5-.6.6-.6 1.1-.1 1.7.2 1.3.5zm115.3 5.8c0 .3-.4.8-1 1.1-.5.3-1 .1-1-.4 0-.6.5-1.1 1-1.1.6 0 1 .2 1 .4zm11.8 2.5c-.2.9-1.8 1.4-4.6 1.5-3.3.1-4.2-.3-4.2-1.6s.9-1.6 4.5-1.5c3.3.2 4.5.6 4.3 1.6zm9.3.9c-.7.2-1.8-.1-2.3-.6-.8-.8-.4-.9 1.3-.5 1.3.4 1.8.8 1 1.1zM1047 1884c0 .4-.6 1.3-1.4 1.9-1.1.9-1.5.7-1.9-.8-.3-1.1-.3-2.2 0-2.5.7-.6 3.3.4 3.3 1.4zm142-1c0 .5-.5 1-1.1 1-.5 0-.7-.5-.4-1 .3-.6.8-1 1.1-1 .2 0 .4.4.4 1zm119.5 0c.3.5-.1 1-.9 1-.9 0-1.6-.5-1.6-1 0-.6.4-1 .9-1 .6 0 1.3.4 1.6 1zm-255.8 1.6c-.3.3-1.2.4-1.9.1-.8-.3-.5-.6.6-.6 1.1-.1 1.7.2 1.3.5zm194.3 8.8c0 .8-.4 1.8-1 2.1-.5.3-1-.3-1-1.4 0-1.2.5-2.1 1-2.1.6 0 1 .6 1 1.4zm-332 5.6c0 .5-.4 1-1 1-.5 0-1-.5-1-1 0-.6.5-1 1-1 .6 0 1 .4 1 1zm338 8.9c0 1.1-.4 2.3-1 2.6-.5.3-1-.1-1-.9 0-.9-.4-1.6-1-1.6-.5 0-1-.5-1-1 0-.6.9-1 2-1 1.3 0 2 .7 2 1.9zm21.1.8c.4 1.2.5 2.4.1 2.7-1.2.7-5.4-3.3-4.7-4.4 1.1-1.7 3.7-.7 4.6 1.7zm-108.2 3.1l-.2 2.7-.4-2.8c-.4-2.2-1-2.7-3.1-2.7-2 0-2.3-.3-1.3-.9 2.4-1.5 5.1.6 5 3.7zm91.8-4.2c-.3.3-1.2.4-1.9.1-.8-.3-.5-.6.6-.6 1.1-.1 1.7.2 1.3.5zm6.4 2.8c-1.9 2-5.1 2.6-5.1 1 0-1.4 2.8-3.3 4.9-3.4h2.4l-2.2 2.4zm-22.1 4.3c0 .7-.7 1.3-1.5 1.3-1 0-1.5-1-1.5-3.3.1-3 .1-3.1 1.5-1.3.8 1.1 1.5 2.6 1.5 3.3zm9-.7c0 1.1-.4 2-1 2-.5 0-1-.9-1-2s.5-2 1-2c.6 0 1 .9 1 2zm-92 14.4c0 .3-.4.8-1 1.1-.5.3-1 .1-1-.4 0-.6.5-1.1 1-1.1.6 0 1 .2 1 .4zm12 4.6c0 1-.9 2.4-2 3-2.5 1.3-2.6 3.7-.2 4.3 1.5.4 1.5.5 0 .6-.9 0-2.3-.5-3-1.2-1.7-1.6-5.7-2-7.3-.7-1.9 1.5-3.6-3.1-2-5.3 1.6-2.2 2.5-2.2 2.2 0-.3 2.6 1.6 2.9 2.9.5.9-1.8 1.1-1.8 2-.5.8 1.3 1.2 1.2 3.4-.6 3.1-2.6 4-2.6 4-.1zm-276.3 2.2c-.3.8-.6.5-.6-.6-.1-1.1.2-1.7.5-1.3.3.3.4 1.2.1 1.9zm7 8.5c-.3 1-.5.4-.5-1.2 0-1.7.2-2.4.5-1.8.2.7.2 2.1 0 3zm298.6-3c-.7.2-1.9.2-2.5 0-.7-.3-.2-.5 1.2-.5s1.9.2 1.3.5zm-49.3 4.9c0 1.4.6 2.4 1.4 2.4.9 0 1.2-.7.9-2-.4-1.4.1-2.2 1.8-2.9 1.3-.4 3-.6 3.7-.4 1.7.7 1.5 3.2-.2 3.9-.8.3-1.2 1.2-.9 2 .6 1.5 3.9 1.9 4.7.6.2-.4 2.6-.8 5.3-.7h4.8l.3 4.7c.2 2.7.8 4.8 1.4 4.8.5 0 .8-.6.5-1.4-.3-.7.1-2.6.9-4.1 1.6-3 1.1-4.7-1.1-3.8-1 .3-1.5-.2-1.5-1.6 0-2.2 1.4-2.8 2.5-1 .4.6 2.3.8 4.4.5 2-.3 5.3-.5 7.3-.6 3.1 0 3.7-.3 3.5-1.9-.3-2.5 1.3-3.1 2.6-1 .8 1.3.6 2.1-.7 3.4-1.3 1.4-1.4 2-.5 3.2 1 1.1.8 1.5-.9 2-1.2.3-2.2 1-2.2 1.7 0 .6-.9 0-1.9-1.3-1.3-1.7-2-2-2.6-1.1-.4.6-.2 1.7.4 2.3 1.6 1.6 1.4 2.7-.5 2.7-3.1 0-1 3.4 2.6 4.1 1.9.4 3.9 1.4 4.5 2.2.6.8 2.2 1.7 3.5 2 2.4.4 2.4.4-.3.6-1.5 0-3 .8-3.3 1.6-.9 2.1-2.4 1.9-2.4-.4 0-3.2-5.2-3.7-7.2-.7-1.3 1.9-.9 4.6.7 4.6.8 0 1.5.4 1.5 1 0 .5-1.8 1-4 1-2.8 0-4-.4-4-1.4 0-2.1-1.9-3-3.5-1.6-1.9 1.6-3.5.4-3.5-2.6 0-1.3-.4-2.4-1-2.4-.5 0-1-1.1-1-2.4 0-4.2-1.1-5.6-4.2-5.6-2.3 0-3.1-.6-3.9-3-1.2-3.3-3-3.8-4.9-1.5-1.5 1.9-4.4 1.9-5.9.2-.8-1.1-1-7.7-.2-10.6.4-1.4 3.1 2.6 3.1 4.5zm33.4-2.8c.5.3.1.9-.8 1.4-1.9 1.1-3.6.3-3.6-1.7 0-1.3 1.7-1.2 4.4.3zm15.1 4.5c1.6.5 1.5.5-.4.4-1.4-.1-2.6-.9-2.8-1.7-.3-1-.2-1.1.4-.4.4.7 1.7 1.4 2.8 1.7zm-2.5 10.6c0 2.4.3 2.8 2 2.4 1.1-.3 2-.9 2-1.4 0-.5.4-.9.8-.9.5 0 .9 1.3.9 3 0 3.4.1 3.4-5.2 1.6-2.3-.8-4.5-2.4-5.2-3.7-1.1-2.1-1-2.5 1-3.1 3.6-1 3.7-.9 3.7 2.1zm-310 1.1c0 .5-.4 1-1 1-.5 0-1-.5-1-1 0-.6.5-1 1-1 .6 0 1 .4 1 1zm275 0c0 .5-.5 1-1.1 1-.5 0-.7-.5-.4-1 .3-.6.8-1 1.1-1 .2 0 .4.4.4 1zm3.8 6.5c-.3.3-.9-.2-1.2-1.2-.6-1.4-.5-1.5.5-.6.7.7 1 1.5.7 1.8zm11.7 11.5c-.6.9-.9.9-1.6-.1-1-1.7 0-3.4 1.3-2.1.6.6.7 1.6.3 2.2zm123.5-1.5c0 .8-.4 1.5-.9 1.5-1.3 0-2.2-1.6-1.4-2.4 1.1-1.1 2.3-.6 2.3.9zm-161.5 3.5c.3.5-.1 1-.9 1-.9 0-1.6-.5-1.6-1 0-.6.4-1 .9-1 .6 0 1.3.4 1.6 1zm187.7.8c-.6.2-1.2 1.1-1.2 1.9 0 2.1-1.3.8-1.7-1.6-.2-1.5.2-1.8 1.9-1.3 1.3.3 1.7.7 1 1zm-4.2 3.2c0 .5-.9 1-2 1s-2-.5-2-1c0-.6.9-1 2-1s2 .4 2 1zm-59.4 26.5c1.4 1.3 1.3 1.5-.5 1.5-1.2 0-2.1-.6-2.1-1.5 0-.8.3-1.5.6-1.5s1.2.7 2 1.5z"/><path d="M993 686.5c-2.5.7-6.4 2.2-8.7 3.4-4.8 2.4-11.5 2.8-13.2.7-2-2.4-12.8-2.8-22.6-.7-11 2.3-29.3 3.5-31.1 2-.9-.7-2.5-.7-5.4.1-3.1.8-4.9.8-7.4-.1-4.1-1.5-10.4.4-8.6 2.6 1.5 1.8-.7 3.3-8.3 5.5-1.7.5-2.5.5-2.2-.1 1.4-2.2-6.7-.1-8.5 2.3-.3.4-1.8 1.1-3.3 1.7-1.5.6-2.6 1.6-2.5 2.2.2.6-2.3 2.2-5.5 3.6-5.6 2.5-8.3 2.5-5.9.1 1.7-1.7 1.5-3.8-.3-3.8-.8 0-3.9 2-6.9 4.5-3.1 2.5-5.8 4.5-6.1 4.5-.3 0-1.8 1.2-3.3 2.6-1.5 1.4-4.5 3.8-6.7 5.2-2.2 1.5-6.2 4.3-9 6.3-2.7 2-7.7 5.1-11 6.9-3.3 1.8-6.9 3.9-8 4.6-1.1.8-2.7 1.4-3.6 1.4-.9 0-5.4 3.4-9.9 7.5-4.6 4.1-9.8 8.5-11.6 9.7-3.9 2.7-4.7 4.3-3.4 6.7 1.4 2.7.3 8-2.5 12.1-2.8 4-3.1 5.6-1.3 6.2 2.1.7 1.5 4.1-1 6.5l-2.3 2.2 3.3.3c3 .3 3.3.6 3.3 3.8 0 3 .4 3.5 2.8 4 1.6.3 3.3 1.5 4 3 .8 1.5 2 2.4 3 2.2 1.1-.2 1.7.4 1.7 1.6 0 1 .3 2.2.8 2.6.4.4.8 1.2.8 1.7.1.5.2 1.3.3 1.9 0 .5.9 1 2 1 3.8 0 3.1-7.2-.9-8.5-3.9-1.2-1.5-3 4.1-3 3 0 6-.4 6.6-.8 2-1.3 5.3 1.1 5.3 3.9 0 1.6-.8 2.8-2.5 3.6-1.5.7-2.4 1.7-2.1 2.5.3.8-.1 1.6-1 2-1.1.4-1.4 1.3-1 2.9.6 2.1.3 2.4-1.9 2.4-2.9 0-3.4 2.4-.7 3.9 1.4.8 1.5 1.2.5 2.2-.7.7-1.3 2.1-1.3 3.1 0 .9-.7 2.1-1.6 2.6-1.1.6-1.4 1.4-.8 2.3.4.8.9 2 1 2.9 1 9.5 1.7 13.6 2.4 14.5.5.6.6 2.1.3 3.4-.3 1.2-.1 3.2.5 4.4.5 1.2 1.3 3 1.6 4 .3 1 .9 1.6 1.4 1.4 1-.7 3.7 1.4 4.4 3.4.4.9 2 1.9 3.6 2.2 1.7.3 4.7 2 6.7 3.8l3.6 3.2 8.9-.7c4.9-.4 10-.4 11.3-.1 2.2.6 2.4 1 1.9 5.1-.4 4.1-.3 4.4 1.9 4.5 1.3.1 3 0 3.8-.1 3.4-.4 8.2 1.3 11.1 4 1.7 1.6 3.9 3.1 4.8 3.4 1 .3 2.3 2 2.9 3.7 1.2 3 1.2 3 4.2 1.5 2.9-1.5 3.1-1.5 4.1.4.6 1.2 2.1 2 3.5 2s5.5 1.6 9.2 3.5c7.5 3.8 14.2 5.1 31.3 6.1 14.9.9 24.6.5 31.5-1.1 3.3-.7 8.3-1.7 11-2 2.8-.4 5.7-1.1 6.6-1.6 1.1-.5 2.1-.4 2.7.4.8.9.3 1.6-2.1 2.7-1.8.8-2.6 1.5-1.8 1.8.7.2 2.4-.2 3.8-.9 2.1-1.1 2.6-1.1 3.3.2 1.5 2.6 10.3 2.4 15.8-.4 4.4-2.2 9.3-4 11.7-4.2.6 0 3.6-1.8 6.9-3.8 3.2-2.1 6.4-3.6 7-3.4.6.3 2.5-.8 4-2.4 1.6-1.6 3.8-2.9 4.8-2.9 1.1 0 1.8-.7 1.8-2 0-1.8.3-1.9 2-1 1.1.6 2.5.8 3 .5.6-.4-.9-1.7-3.2-2.9-3.7-1.9-4.3-2.7-4-5 .4-2.6.2-2.8-2.7-2.1-2 .4-3.1.3-3.1-.4 0-.6.9-1.1 2.1-1.1 2.9 0 6.1-1.9 5.3-3.2-.4-.7-.3-.8.4-.4.6.3 3.7-.2 6.9-1.3 3.2-1 7.7-2.4 10-3 2.3-.7 5.6-2.3 7.3-3.7 3.6-3.1 4-7.7 1-13.9-2-4.2-2.8-12.1-1-11 1.5.9 4.8-1.2 5.5-3.6.9-2.9 5.2-4.3 7.1-2.4.9.8 2.2 1.5 2.9 1.5.8 0 3 1.4 5 3.1 1.9 1.7 3.5 2.6 3.5 1.9 0-2.1 6.7-.4 10.1 2.4 4.2 3.6 5.5 3.3 7.8-1.7 1.1-2.3 2.9-5.2 4-6.4 1.3-1.3 2.1-3.6 2.1-5.5 0-2.5.8-3.9 3-5.7 1.7-1.3 3-3.2 3-4.2 0-1.1.5-1.9 1.1-1.9.5 0 .9-.8.8-1.8-.1-.9.2-2.5.6-3.6.5-1.2.3-2.1-.6-2.8-1.1-.7-1.1-1.1-.1-1.5 2.1-.8 4-5.6 3.2-7.8-1.1-2.7-.2-6.5 2.1-9 1-1.1 1.8-2.9 1.8-4 0-6.2.4-9.5 1.2-9.5.4 0 .6-.6.3-1.3-.3-.8.2-2 1.1-2.7.8-.7 1.5-1.8 1.5-2.6 0-.7 1-1.6 2.3-2 3.2-.9 5.7-3.4 7.2-7 .7-1.8 2.2-4.1 3.3-5.2 1.1-1.1 2.3-3.5 2.6-5.4.3-1.8 1.2-5.4 2-8.1 1.6-5.1 1.3-7.7-1-7.7-1.8 0-1.8-1 0-3.5.7-1.1 1.7-3 2-4.3.7-2 .5-2.2-1.8-1.6-1.9.4-3.1 0-5.1-2.1-2.1-2-3-2.3-4.1-1.4-1 .8-1.7.7-2.9-.4-.8-.8-1.8-1.7-2.2-1.9-.5-.1-1.7-2-2.8-4.2-2.2-4.4-4-5.4-6.5-3.8-2.4 1.5-3.6 0-4.5-5.6-.4-2.3-1-4.2-1.5-4.2-1 0-2 2.5-2.1 5.3 0 2.2 0 2.2-1-.1-.5-1.4-1.4-2-2-1.6-.9.5-1-.5-.5-3.8.5-3.6.4-4.5-.9-4.5-.8 0-1.5.6-1.5 1.4 0 .7-.4 1.3-1 1.3-1 0-1.4-2-1.2-5.3.2-2.2-1.5-5.7-2.8-5.7-.6 0-1 1.7-1 3.8 0 2.6-.6 4.1-2 4.9-1.7 1.1-2.1.9-3.8-3-2.2-4.7-7.7-11.3-8.5-10-.2.4-.7 2.4-1.1 4.4-.8 4.8-2.8 6.5-4.9 4.4-2.3-2.3-5.6-1.9-6.9.9l-1.1 2.5-5.1-3.8c-8.8-6.6-11.3-7.6-19.6-7.4-4.1.1-8.4-.4-9.5-1-1.1-.6-7.3-1.2-13.8-1.3-6.5-.1-13.5-.5-15.5-.8-2-.2-5.7.1-8.2.9zm-140 30.3c-.8.3-1.8 1-2.2 1.6-.5.7-.8.5-.8-.6 0-1.8 1.9-2.9 3.5-2 .5.3.2.8-.5 1zm59.1 30.2c1 0 1.9.7 1.9 1.5 0 .9.8 1.9 1.8 2.3 1.2.5.6.9-2.3 1.5-4.6.9-8.3 1.5-10.7 1.6-4.3.2-.3 3.8 5.5 5 3.8.8 3.8 2 0 4.1-1.8 1-3.8 2.2-4.5 2.7-.7.6-2.6 1.3-4.1 1.7-2.8.7-2.9.6-2.2-2.4.5-2.5.3-3-1.2-3-2.1 0-4.6 1.4-4.3 2.4.6 1.9-1 4.6-2.8 4.6-1.1 0-2.2.7-2.6 1.5-.3.8-1.2 1.5-2.1 1.5-2 0-7.5 4.9-7.5 6.7 0 .8-1.1 1.3-2.9 1.3-1.6 0-3.4.7-4.1 1.5-1.4 1.7-5 2-5 .5 0-1.3 3.7-5 5-5 .6 0 1-.5 1-1.1 0-.6-.9-.8-2.2-.4-6.8 1.8-9.8 2.9-9.8 3.7 0 1.1.7 1 3-.2 2-1.1 2.2.2.5 3.2-1.2 2-3.2 2.4-6.8 1.5-3.5-.9-7.3.9-5.8 2.7.8 1 .2 1.6-2.9 2.5-4.4 1.3-8.9.6-10.7-1.8-.6-.9-1.5-1.3-1.8-.9-.4.4 0 1.4.9 2.3.9.9 1.6 2.1 1.6 2.6s.9.9 2 .9 2 .3 2 .7c0 1.5-4.5 5.3-6.2 5.3-1 0-1.8.5-1.8 1.1 0 .6.9.9 2 .6 1.1-.3 2-.1 2 .3 0 1.3-4.1 2.4-8.5 2.1-4.7-.3-11 2.1-11.9 4.5-.6 1.5-1 1.3-3.6-1.2-1.6-1.6-3-3.5-3-4.2 0-1.1-.5-1.4-3.2-1.6-1.9-.1-5.8-5.6-5.8-8.1 0-1.1.9-2.8 2-3.8 1.1-.9 2-1.4 2-1.1 0 .4.7.1 1.6-.7.9-.7 3.8-1.2 6.9-1.1 4 .1 5.8-.3 7.6-1.9 1.3-1.2 2.3-2.6 2.1-3.1-.6-2.1 2.2-3.9 5.6-3.6 2.2.2 3.7-.2 3.9-1 .3-.8-.7-1.2-3.1-1.2-1.9 0-3.8-.5-4.1-1-.3-.6 0-1 .8-1s1.4-.8 1.3-1.7c-.1-1.4.6-1.7 3.1-1.5 3.4.4 6.8-1 9.4-3.8 1.3-1.3 4.2-1.8 12-2.3 8.9-.6 10.5-.9 12.8-3 1.8-1.7 4.3-2.6 8-3 3-.4 5.8-1.2 6.2-1.9.5-.7 3.2-1.2 7-1.3 5.4-.1 6.3-.4 7-2.3.5-1.2 1.8-2.4 3.1-2.7 5.8-1.4 11.4-2.2 12.6-1.9.8.2 2.2.4 3.3.4zM895 768.1c0 .5-.4.9-1 .9-.5 0-1-.7-1-1.6 0-.8.5-1.2 1-.9.6.3 1 1 1 1.6zm-105.7 2.1c3.5 1.7 3.4 2.6 0 2.1-4.4-.7-5.5-1.2-4.8-2.3.8-1.3 1.5-1.3 4.8.2zM949 793.5c.5-.3 1.9.8 3.2 2.4 1.3 1.6 3.3 3.2 4.6 3.6 1.8.5 2.2.2 2.3-1.7 0-1.3.3-1.7.6-1s0 2.6-.7 4.2c-1.2 3-6.2 4.7-10 3.5-1.1-.4-2-.2-2 .3 0 1.3-6.2 2.6-22 4.7-6.9.9-14.1 2.3-16 3-5.2 2.1-11 3.4-12.3 2.9-1.7-.6-1.7-5.2 0-5.8.8-.3 1.2-1 .8-1.6-.7-1.1 11.7-7.2 21.8-10.6 3.9-1.3 9.4-2.4 12.3-2.4 2.8 0 6.7-.6 8.5-1.4 2.3-.9 4.1-1.1 5.7-.5 1.3.5 2.7.7 3.2.4zm34.9 63.4c.8.5 1.1 1.6.8 2.5-.8 2.1 1 3.1 2.9 1.5 1.4-1.1 1.4-.9.2 2.2-.8 1.9-1.8 3.2-2.3 3.1-.4-.2-1.2.4-1.7 1.2-.7 1.3-1.8 1.5-4.6 1-4.5-.8-4.6-.9-3.6-2.6.5-.7.9-1.6.9-1.9 0-.8 4.9-7.9 5.5-7.9.3 0 1.1.4 1.9.9zm55.8 3.7c-.3.3-1.2.4-1.9.1-.8-.3-.5-.6.6-.6 1.1-.1 1.7.2 1.3.5zM999.3 878c1.4 1.1 3.2 2 4.1 2 2 0 2 .5-.1 3-2.2 2.5-3.4 2.5-5.3.2-1.7-2.1-4-5.9-4-6.7 0-1.2 2.9-.4 5.3 1.5zm-65.8 1.4c1.8 1.3 1.8 1.4-.2 2.4-1.8 1-6.3.6-6.3-.6 0-.6 3.2-3.1 4.1-3.2.3 0 1.4.6 2.4 1.4zm34 1.9c-1.4.5-2.5 1.3-2.5 1.8s-.4.9-1 .9c-1.3 0-1.3-3.3.1-4.7.7-.7 1.7-.7 3.4.1l2.4 1.1-2.4.8zm-7.5.1c0 1.3-.7 2.9-1.5 3.6-1.4 1.1-1.9.7-1.6-1.2.2-1.2-4.6-2.1-7.3-1.4-1.4.3-2.7.2-3-.3-.6-1 5.2-2.7 6-1.8.3.3 1.7.1 3.2-.3 4.1-1.2 4.2-1.2 4.2 1.4zm-72.8 7.8c-.6.6-1.5.8-1.9.4-.4-.4-.1-1.1.7-1.6 1.9-1.2 2.7-.3 1.2 1.2zm15.8 2.5c0 .7-.4 1.3-.9 1.3s-1.1.7-1.3 1.6c-.3 1.4-.6 1.4-2.8-.4l-2.5-2 2.5-2.4c2.2-2 2.7-2.1 3.7-.8.7.8 1.3 2.1 1.3 2.7zm18 1.5c0 1.5-3.2 3.7-5.2 3.8-1 0-1.8-.5-1.8-1 0-.6-.7-1-1.7-1-2.3 0-.8-1.2 3-2.5 3.5-1.2 5.7-.9 5.7.7zm6.8 1.7c.3.8-.1 1.2-.9.9-.7-.2-1.5-1-1.7-1.7-.3-.8.1-1.2.9-.9.7.2 1.5 1 1.7 1.7zm54.7 14.1c.3.5.1 1-.4 1-.6 0-1.1-.5-1.1-1 0-.6.2-1 .4-1 .3 0 .8.4 1.1 1z"/><path d="M864.4 763.2c-.2.4-.1.9.3 1.1 1.2.7 7.3-.4 7.3-1.3 0-1-7-.8-7.6.2zM770 801c0 .5.7 1 1.6 1 .8 0 1.2-.5.9-1-.3-.6-1-1-1.6-1-.5 0-.9.4-.9 1zM1035.8 891.7c-2 .5-2.4 2.3-.5 2.3.6 0 2.1-.7 3.1-1.5 2-1.5 1.1-1.8-2.6-.8zM1041 892c0 .5.5 1 1.1 1 .5 0 .7-.5.4-1-.3-.6-.8-1-1.1-1-.2 0-.4.4-.4 1zM1164.4 1060.9c0 1.1.5 1.7 1.3 1.4.7-.3 1.3-1.1 1.3-1.9 0-.8-.6-1.4-1.3-1.4-.7 0-1.3.8-1.3 1.9zM709 1141.9c0 .5-.9 1.3-2 1.6-2.2.7-2.8 3.5-.7 3.5 1.6 0 4.7-3.2 4.7-4.8 0-.7-.4-1.2-1-1.2-.5 0-1 .4-1 .9zM1051.5 1175c-.8 1.3.5 1.3 2.5 0 1.3-.8 1.3-1-.2-1-.9 0-2 .4-2.3 1zM1056.5 1186c-.7 1.2.2 1.2 3 0 1.9-.8 1.9-.9-.2-.9-1.2-.1-2.5.3-2.8.9zM1043.6 1197.9c-1.6 1.7-1.6 1.9.1 2.6 1.7.7 1.7.7 0 1.4-1 .4-1.8 1.1-1.8 1.6 0 .6-.7 2.1-1.6 3.4-1.2 1.8-1.3 2.9-.4 4.7 1.3 3 2.2 3 4.9-.1s2.7-3.5.2-3.5c-2.3 0-2.7-2.5-.6-3.3.8-.3 1.3-2.1 1.3-4.6 0-2.3-.1-4.1-.2-4.1s-1 .8-1.9 1.9zM1057.8 1197.1c-2.1 1.1-2.4 5.5-.6 6.1 1.3.5 3.8-3.4 3.8-5.8 0-1.6-.8-1.7-3.2-.3zM1074 1202.1c0 .5.5.7 1 .4.6-.3 1-.8 1-1.1 0-.2-.4-.4-1-.4-.5 0-1 .5-1 1.1zM992.5 1204c-1 1.1-2.6 2-3.7 2-1 0-1.8.4-1.8 1 0 1.3 1.5 1.3 6.2 0 4.5-1.3 5.5-2.6 3-3.9-1.5-.8-2.3-.6-3.7.9zM1008 1205.5c-3.2 2.4-5.6 3.5-8.1 3.5-4.4 0-7.2 2-7.6 5.4-.3 2.2 0 2.6 2.2 2.6 1.7 0 2.5.6 2.5 1.7.1 2.7 2.5 5.3 4.9 5.3 1.3 0 2.1-.7 2.2-1.8.1-.9.2-2.2.3-2.9 0-.6 1.3-2.1 2.9-3.3 3.8-3 5.3-6 3.6-7.1-1-.6-1-.9-.2-.9.7 0 1-.7.7-1.5-.4-.8-.2-1.5.4-1.5.5 0 1.2-.7 1.6-1.5.8-2.3-.5-1.8-5.4 2zM981.4 1220.7c-4 4.2-4.3 4.8-2.5 5.1 1.1.2 2.9-.2 4-.7 1.1-.6 2.9-1.1 4-1.1 1.2 0 2.2-.6 2.3-1.3 0-.6.2-1.7.2-2.2.1-.6.5-1.5.9-2.1.6-1.1-1.2-2.4-3.4-2.4-.5 0-3 2.1-5.5 4.7zM700 1221.4c0 3.1.6 3.4 1.3.6.3-1.1.1-2.3-.4-2.6-.5-.3-.9.6-.9 2zM953.8 1229.8c-3 .3-3.8.7-3.8 2.3 0 2.5 3 2.5 6.1 0 2.9-2.3 2.5-2.7-2.3-2.3zM927.8 1242.7c-3.8 2.4-4.6 4.7-1.3 3.9 1.8-.5 2.3-.3 1.9.8-.8 2.1 3.2 2.6 6.9.9 5.6-2.8 6.1-3.5 3.5-4.9-2.8-1.6-4.1-1.7-3.3-.4.3.5-.1 1-.9 1-.9 0-1.6-.7-1.6-1.5 0-1.9-1.8-1.9-5.2.2zM913.5 1259.3c-3.7 2.1-6 5.7-3.6 5.7 1.5 0 10.1-6 10.1-7.1 0-1.5-2.2-1-6.5 1.4zM919.1 1262c-1.3 1.1-2 2-1.7 2 1 0 6.6-3 6.6-3.5 0-1.1-2.7-.3-4.9 1.5zM1040 1289c0 .5.5 1 1.1 1 .5 0 .7-.5.4-1-.3-.6-.8-1-1.1-1-.2 0-.4.4-.4 1zM774.1 1303.4c-1.1 1.3-1.1 2-.3 2.8.8.8 1.3.7 1.8-.5 1-2.7 0-4.1-1.5-2.3zM768.1 1333.2c-.1 1.6.4 2.8.9 2.8 1.2 0 1.2-.8 0-3.5-.8-1.8-.9-1.7-.9.7zM920.3 1334.6c-2.5 2.3-3.1 5.4-1 5.4 1.3 0 4.1-5.4 3.5-6.7-.1-.5-1.3.1-2.5 1.3zM792 1336.4c0 .7.7 1.9 1.5 2.6.8.7 1.2 1.6.9 2.1-.3.5 0 .9.6.9s.8.4.5 1c-.3.5-1.8.7-3.3.4-2.4-.5-2.9-.1-4.5 3.7-.9 2.4-1.3 4.7-.9 5.1 1.4 1.4 4.2-.2 4.2-2.3 0-1 .4-1.9 1-1.9.5 0 .7-.7.4-1.5-.4-.9 0-1.5 1-1.5 1.8 0 2.2 1.5.6 2.5-1.5.9-1.2 2.5.6 2.5.8 0 1.2-.5.9-1-.3-.6-.1-1 .4-1 1.9 0 6.1-4.3 6.1-6.1 0-1.2-.9-1.9-2.7-2.1-1.7-.2-3.2-1.2-3.8-2.6-1.1-2.4-3.5-3-3.5-.8zM822.8 1346c-.9.6-2.7 2.4-3.9 4.2l-2.3 3.1 3-.7c3-.7 7.7-5.4 6.8-6.8-.7-1-1.5-1-3.6.2zM1039.5 1349c.3.5.8 1 1.1 1 .2 0 .4-.5.4-1 0-.6-.5-1-1.1-1-.5 0-.7.4-.4 1zM803.5 1368.9c-.3.6-.7 4.2-1 8.1-.6 8.7 1 10.1 5.7 5.1 1.8-1.9 3.6-3 4.5-2.7.8.3 1.1.1.8-.5-.4-.5-.1-1.6.5-2.4.9-1.1.9-1.9-.2-3.4-1.3-1.9-1.7-1.9-3.4-.6-3.1 2.4-4.4 1.9-3.7-1.5.4-2.3.2-3-1-3-.9 0-1.8.4-2.2.9zm1.9 7.6c-.4.8-1 1.2-1.5.9-1.1-.6-.2-2.4 1.1-2.4.5 0 .7.7.4 1.5zM1031.5 1371c-.4.6.6 1 2.2 1 2.2 0 2.5-.2 1.3-1-1.9-1.2-2.7-1.2-3.5 0zM811.4 1384.1c-.8 1.3-.8 8.9.1 9.7.3.3 1.8.1 3.3-.4 5-1.7 3.8-10.4-1.4-10.4-.7 0-1.6.5-2 1.1zM926.4 1392.3c-.8 2.1-.3 2.9 1.3 1.9.8-.5.9-1.3.3-2.2-.7-1.2-1-1.2-1.6.3zM588.8 973.6c.2 1.3 1.1 2.4 1.8 2.4 2.1 0 1.7-3.7-.4-4.2-1.5-.4-1.8-.1-1.4 1.8zM1257 994.8c0 1.4 2.3 3.2 4.2 3.2 1 0 1.8-.5 1.8-1 0-.6-.7-1-1.5-1s-1.5-.5-1.5-1c0-.6-.7-1-1.5-1s-1.5.4-1.5.8zM1475 1055.5c0 1.8.5 2.5 2 2.5 2.4 0 2.8-3.5.4-4.4-2.3-.9-2.4-.8-2.4 1.9zM1475 1063c0 .5.5 1 1 1 .6 0 1-.5 1-1 0-.6-.4-1-1-1-.5 0-1 .4-1 1zM1464 1085.1c0 .5.5.7 1 .4.6-.3 1-.8 1-1.1 0-.2-.4-.4-1-.4-.5 0-1 .5-1 1.1zM1438.6 1105.8c-2 3.8-2 6.8-.3 7.5 1.9.7 3.6-.5 5.2-3.6 1.2-2.3 1.1-2.8-1-4.7l-2.3-2.2-1.6 3zM1445.5 1112.1c-.4.6-.3 1.4.2 1.8.6.3 2 2.1 3.1 3.9 1.1 1.9 2.3 2.9 2.6 2.4.9-1.5-.4-4.2-2-4.2-.8 0-1.3-.9-1.1-2.1.2-2.4-1.7-3.7-2.8-1.8zM1427.3 1167c-3.2 1.3-4.3 3.8-3 7.3.7 2.1.7 3.5-.1 4.8-.8 1.2-.8 2-.1 2.4 1.8 1.2 3.8-.3 3.2-2.4-.3-1.2-.1-2.1.4-2.1s2-1.8 3.2-4c1.8-3.3 2-4.4 1.1-5.5-1.4-1.7-1.7-1.7-4.7-.5zM1407.2 1222.7c-3.2 1.2-6 13.3-3.1 13.3.6 0 .9-.7.5-1.5-.3-.8-.2-1.4.2-1.3 1.2.4 5.2-2.6 5.2-3.9 0-.7.5-1.3 1-1.3 1.5 0 1.2-1.2-.8-3.6-.9-1.2-2.3-1.9-3-1.7zM1403.5 1251c-.3.5-.1 1 .4 1 .6 0 1.1-.5 1.1-1 0-.6-.2-1-.4-1-.3 0-.8.4-1.1 1zM1385.5 1271c.3.5 1.4 1 2.3 1 1.5 0 1.5-.2.2-1-2-1.3-3.3-1.3-2.5 0zM1261.1 1351.4c-1.9 2.3.2 2.6 2.9.5 2.4-1.8 2.4-1.9.4-1.9-1.2 0-2.7.6-3.3 1.4zM973 1442.9c0 2.6 10.1 4.4 12.2 2.3.9-.9.3-1.2-2.3-1.2-2 0-3.9-.3-4.2-.7-1-.9-5.7-1.3-5.7-.4zM887.5 1451c-1.6 1.6-3.5 3-4.2 3-1.7 0-1.7 4 0 4.1 5.8.5 11.1-3.1 10.5-7.3-.5-3.3-3-3.3-6.3.2zM927.8 1456.7c.6.2 1.8.2 2.5 0 .6-.3.1-.5-1.3-.5-1.4 0-1.9.2-1.2.5zM907 1474.1c0 .5.5.7 1 .4.6-.3 1-.8 1-1.1 0-.2-.4-.4-1-.4-.5 0-1 .5-1 1.1zM1148.3 1479.7c-.7.2-1.3 1.3-1.3 2.4 0 1.4.7 1.9 2.6 1.9 2 0 2.5-.4 2.2-2.2-.3-2.3-1.5-3-3.5-2.1zM1042.9 1494.5c-1.3 1.9-2.7 3.5-3.1 3.5-.5 0-.8.9-.8 2 0 2.1 1.5 2.7 2.5 1 .4-.6 1.4-1 2.3-.8 1.9.3 7.2-2.9 7.2-4.4 0-.5-.9-.6-2.1-.3-1.7.6-2 .3-1.7-1.6.5-3.5-1.7-3.3-4.3.6zM946.5 1496.1c-1.1 1.7.1 2.1 1.5.4.8-.9.8-1.5.2-1.5-.6 0-1.4.5-1.7 1.1zM1034 1496.1c0 .5.5.7 1 .4.6-.3 1-.8 1-1.1 0-.2-.4-.4-1-.4-.5 0-1 .5-1 1.1zM1027.9 1500.2c-3 3.4-3.9 7.8-1.5 7.8 1.7 0 3.9-2.6 4.1-4.8.1-1 .5-2.7.9-4 1-3.1 0-2.8-3.5 1zM1100.6 1504.9c-.4.6-1.8 1.1-3.1 1.1-1.8 0-2.6.7-3.1 2.5-.3 1.4-1 2.3-1.4 2-.4-.3-2.2.2-3.9 1.1-2.5 1.3-3 2-2.5 3.7.9 3 4 6.1 5.3 5.3.6-.4 1.1-2 1.1-3.6 0-2.9 1.9-4.4 4.4-3.4.8.3 1.7.1 2-.5.4-.6 1.6-.6 3.7.1 2.2.7 2.8 1.5 2.4 2.8-.4 1.4.4 2 4 3 3.9 1.1 7 3.7 6.2 5.1-.1.2.4-.2 1.1-1 1.6-2 1.6-2.4-.9-6.5-2.1-3.6-3.5-4.3-9.4-4.8-2.5-.3-3.1-.8-3.3-3.3-.4-3.4-1.7-5.2-2.6-3.6zM1175.8 1505.7c.6.2 1.8.2 2.5 0 .6-.3.1-.5-1.3-.5-1.4 0-1.9.2-1.2.5zM1119 1514.5c0 .8.5 1.5 1 1.5.6 0 1-.7 1-1.5s-.4-1.5-1-1.5c-.5 0-1 .7-1 1.5zM958 1516c-.8.5-1.2 1.2-.9 1.5.4.3 1.2-.1 1.9-1 1.4-1.7 1.1-1.9-1-.5zM999 1517.5c-.6.8-.9 1.9-.5 2.5 1.1 1.7 2.2 1.1 2.7-1.5.6-2.8-.3-3.2-2.2-1zM1078.7 1519.7c-.2.5-.1 1.7.3 2.7.6 1.9.7 1.9 1.2-.2.6-2.1-.6-4-1.5-2.5z"/><path d="M1102.9 1519.2c-.1.3-.3 1.8-1.5 9.2-.6 3.9-.4 4.8.7 4.4.7-.2 1.6-1.5 2-2.9 1.1-3.8 1-10.9-.1-10.9-.5 0-1 .1-1.1.2zM1052 1525.2c0 3.6.4 3.5 1.4-.5.4-1.6.2-2.7-.4-2.7-.5 0-1 1.4-1 3.2zM918.5 1524c-.3.6.1.7.9.4 1.8-.7 2.1-1.4.7-1.4-.6 0-1.3.4-1.6 1zM1073 1524.6c0 .8.5 1.2 1 .9.6-.3 1-1 1-1.6 0-.5-.4-.9-1-.9-.5 0-1 .7-1 1.6zM1013.5 1533.5c-1 2.4-1.5 5.1-1.2 5.9 1 2.5 3.4.8 4-2.7.4-1.8.9-4.2 1.3-5.5.5-1.6.2-2.2-.9-2.2-.9 0-2.2 1.9-3.2 4.5zM1033.6 1531.9c-.4.7-.5 1.5-.2 1.8.9.9 1.9-.4 1.4-1.8-.4-1.1-.6-1.1-1.2 0zM1098.5 1537.2c-3 9.9-3.1 11.2-.1 8.3.9-1 1.6-3.3 1.6-5.6 0-3.8-.7-5.1-1.5-2.7zM1120.7 1537.7c-1 .9-.9 5.1.2 5.7 1.1.7 2.1-3.9 1.1-5.4-.3-.5-.9-.7-1.3-.3zM1053 1539.9c0 .5-1 1.1-2.2 1.3-2.7.4-6 5.8-4 6.5.6.3 1.2 1.1 1.2 1.9 0 3.2 2.9.8 6.3-5.3 2.1-3.8 2.2-5.3.2-5.3-.8 0-1.5.4-1.5.9zM1071.1 1543.8c-2.8 3.2-4.7 7-3.8 7.8.3.4 2.3-.1 4.3-1.1 2.5-1.1 3.3-2 2.4-2.5-.9-.5-.9-.9-.1-1.4 1.3-.8 1.5-4.2.3-5-.4-.2-1.8.8-3.1 2.2zM1010.5 1543.7c-2.9.7-4.3 2.3-2.1 2.3 1.6 0 1.8.6 1.3 4.1-.4 3.3-.3 3.9 1 3.5.8-.3 1.7-.6 1.9-.6.9 0 .3-5.9-.6-6.5-.8-.5-.7-1.1.1-2.1.6-.8 1-1.3.8-1.3-.2.1-1.3.3-2.4.6zM1123.6 1546.9c-.9 1.4 2.9 5.5 4.2 4.7.7-.4 1.2-1.8 1.2-3.2 0-1.9-.5-2.4-2.4-2.4-1.4 0-2.7.4-3 .9zM1076.2 1555.6c.4 2.1 2.2 2.3 2.6.1.2-1-.3-1.7-1.3-1.7s-1.5.6-1.3 1.6zM1332 1673.8c0 .5.9 1.7 2 2.7 1.1 1 2 1.5 2 1.2 0-.4-.9-1.6-2-2.7s-2-1.6-2-1.2zM1335 1681c0 1.9.3 2.1 1.2 1.2.9-.9.9-1.5 0-2.4-.9-.9-1.2-.7-1.2 1.2zM1335 1715c0 .5.9 1 1.9 1 1.2 0 2.3 1.1 2.9 2.7.9 2.4 1.1 2.5 1.1.6.2-3.6-1-5.3-3.5-5.3-1.3 0-2.4.4-2.4 1zM1320.2 1739.2c-.6.6-2.5 1.1-4.2 1-2.5-.1-3 .3-2.5 1.7.3 1-.1 2.4-1 3.1-2 1.6-1.9 3 .1 3s4.3-2.8 4.4-5.4c0-1.5.3-1.6 1.4-.7 1.2 1 1.7.8 2.7-1 1.1-2.2 1.2-2.2 2.5-.4.8 1 1.4 1.4 1.4.9 0-1.1-2-3.4-3-3.4-.3 0-1.1.5-1.8 1.2zM1331.5 1757c.3.5.8 1 1.1 1 .2 0 .4-.5.4-1 0-.6-.5-1-1.1-1-.5 0-.7.4-.4 1zM1299.5 1758c-.3.6 0 1.7.9 2.5 1.7 1.7 3.1.4 2.2-2-.6-1.7-2.2-2-3.1-.5zM1293.7 1762.7c-1 .3-1.6 1-1.4 1.6.3.7 1.1 1 1.8.8.8-.2 2-.4 2.6-.4.9 0 1-.4.2-1.4-.6-.7-1.2-1.2-1.3-1.2 0 .1-.9.3-1.9.6zM1304 1763.7c-1 1.2-1.1 1.8-.2 2.1 1.9.6 1.4 2.2-.7 2.2-1.7 0-1.8.3-.8 2.5.8 1.6 2 2.5 3.5 2.5 2.1 0 2.2-.3 1.7-3.4-.4-2-.2-3.6.4-4 1.7-1.1 1.3-3.6-.6-3.6-1 .1-2.5.8-3.3 1.7zM1329 1777.4c0 1.4.5 2.8 1 3.1.6.4 1-.7 1-2.4s-.4-3.1-1-3.1c-.5 0-1 1.1-1 2.4zM1325 1779.5c0 .9.6 1.2 1.5.9.8-.4 1.2-1 .9-1.5-.8-1.4-2.4-1-2.4.6zM1313.8 1780.7c.7.3 1.6.2 1.9-.1.4-.3-.2-.6-1.3-.5-1.1 0-1.4.3-.6.6zM1261 1784.6c0 1.9.4 3.3.8 3 .8-.5.4-6.6-.4-6.6-.2 0-.4 1.6-.4 3.6zM1301 1783c0 .5.4 1 .9 1 .6 0 1.3-.5 1.6-1 .3-.6-.1-1-.9-1-.9 0-1.6.4-1.6 1zM1307.6 1784.1c-1.9 1.9-1.9 1.9.2 1.9 1.5 0 2.2-.6 2.2-2 0-2.4 0-2.4-2.4.1zM1279 1785c0 .5.5 1 1 1 .6 0 1-.5 1-1 0-.6-.4-1-1-1-.5 0-1 .4-1 1zM1328.7 1784.6c-.8.8.1 2.4 1.4 2.4.5 0 .9-.7.9-1.5 0-1.5-1.2-2-2.3-.9zM1273.5 1787c-.3.5.1 1 1 1s1.3-.5 1-1c-.3-.6-.8-1-1-1-.2 0-.7.4-1 1zM1308.7 1790.1c.4 1.6.8 1.7 1.4.7 1.3-1.9 1.1-2.8-.5-2.8-.9 0-1.2.7-.9 2.1zM1261 1793.5c.1 2.6.2 2.8 1.1 1.2.8-1.4.8-2.2 0-3-.8-.8-1.1-.3-1.1 1.8zM1257 1795c0 .5.5 1 1 1 .6 0 1-.5 1-1 0-.6-.4-1-1-1-.5 0-1 .4-1 1zM1322.5 1805c.3.5 1 1 1.6 1 .5 0 .9-.5.9-1 0-.6-.7-1-1.6-1-.8 0-1.2.4-.9 1zM1321.8 1811.7c.6.2 1.8.2 2.5 0 .6-.3.1-.5-1.3-.5-1.4 0-1.9.2-1.2.5zM1324.2 1816c0 1.4.2 1.9.5 1.2.2-.6.2-1.8 0-2.5-.3-.6-.5-.1-.5 1.3zM1235.5 1818c.3.5.8 1 1.1 1 .2 0 .4-.5.4-1 0-.6-.5-1-1.1-1-.5 0-.7.4-.4 1zM1261 1821.1c0 .5.5.7 1 .4.6-.3 1-.8 1-1.1 0-.2-.4-.4-1-.4-.5 0-1 .5-1 1.1zM1310.1 1848.2c.1 3.7.2 3.9.9 1.8 1.2-3.6 1.2-6 0-6-.5 0-1 1.9-.9 4.2zM1303.7 1850.7c-1.3 1.3-.7 2.1 1.3 1.6 1.1-.3 2-.9 2-1.4 0-1-2.4-1.2-3.3-.2zM1309 1856c0 .5.5 1 1 1 .6 0 1-.5 1-1 0-.6-.4-1-1-1-.5 0-1 .4-1 1zM1219.4 1859.3c-3.5 5.2-5.7 10.6-5 12.3.5 1.3.9 1.4 2.1.4.8-.7 1.5-1.9 1.5-2.6 0-.8.4-1.4.9-1.4s1.2-2 1.5-4.4c.5-3.3 1.2-4.5 2.7-4.9 1.2-.3 1.8-1 1.4-1.6-1.1-1.9-3-1.2-5.1 2.2z"/><path d="M1221 1865c0 .5.5 1 1.1 1 .5 0 .7-.5.4-1-.3-.6-.8-1-1.1-1-.2 0-.4.4-.4 1zM1301 1869c0 .5.5 1 1 1 .6 0 1-.5 1-1 0-.6-.4-1-1-1-.5 0-1 .4-1 1zM1247 1870.9c0 1.2.5 2.1 1 2.1.6 0 1-.6 1-1.4 0-.8-.4-1.8-1-2.1-.5-.3-1 .3-1 1.4zM1239.4 1872.5c-1.9 1.4-1.8 1.4.4 1.5 1.3 0 2.2-.6 2.2-1.5 0-1.9-.1-1.9-2.6 0zM1232 1877c0 .5.5 1 1 1 .6 0 1-.5 1-1 0-.6-.4-1-1-1-.5 0-1 .4-1 1zM1203 1878c0 .5.5 1 1 1 .6 0 1-.5 1-1 0-.6-.4-1-1-1-.5 0-1 .4-1 1zM1248.5 1882c.3.5.8 1 1.1 1 .2 0 .4-.5.4-1 0-.6-.5-1-1.1-1-.5 0-.7.4-.4 1zM1273 1882.4c0 1 .8 1.6 2.2 1.6 1.2 0 1.9-.1 1.7-.3-.2-.1-1.2-.9-2.1-1.6-1.5-1.2-1.8-1.1-1.8.3zM1221 1883c0 .5.9 1 2.1 1 1.1 0 1.7-.5 1.4-1-.3-.6-1.3-1-2.1-1s-1.4.4-1.4 1zM1278.5 1883c-.3.5-.1 1 .4 1 .6 0 1.1-.5 1.1-1 0-.6-.2-1-.4-1-.3 0-.8.4-1.1 1zM1234.6 1888.9c-.3.5.1 1.1.9 1.5 1.5.6 2.9-.7 1.8-1.8-.9-.9-2.1-.8-2.7.3zM1237 1893.1c0 .5.5.7 1 .4.6-.3 1-.8 1-1.1 0-.2-.4-.4-1-.4-.5 0-1 .5-1 1.1zM1257.3 1897.2c.2.7 1 1.3 1.7 1.3s1.5-.6 1.8-1.3c.2-.7-.5-1.2-1.8-1.2s-2 .5-1.7 1.2zM1197.7 1902.5c-.4.8-.2 1.7.3 2 .6.4 1-.3 1-1.4 0-2.5-.6-2.7-1.3-.6zM1186.6 1923.6c-1.1.8-1.6 1.4-1 1.4 1.3 0 3.9-1.8 3.4-2.4-.3-.2-1.4.2-2.4 1zM1203 1928c0 1.1.5 2 1 2 .6 0 1-.9 1-2s-.4-2-1-2c-.5 0-1 .9-1 2zM1194.5 1933c.4.6 1.1.8 1.6.5 1.4-.9 1.1-1.5-.7-1.5-.8 0-1.2.5-.9 1zM1176.7 1959.7c-1.2 1.1-.8 2.3.8 2.3.8 0 1.5-.7 1.5-1.5 0-1.6-1.2-2-2.3-.8zM1176.2 1965.2c.7 1.9 3.8 2.2 3.8.4 0-1-.9-1.6-2.1-1.6-1.2 0-1.9.5-1.7 1.2zM696.2 1426c0 1.4.2 1.9.5 1.2.2-.6.2-1.8 0-2.5-.3-.6-.5-.1-.5 1.3zM758 1533.1c0 .5.5.7 1 .4.6-.3 1-.8 1-1.1 0-.2-.4-.4-1-.4-.5 0-1 .5-1 1.1zM760 1535.7c0 .6-.3 1.8-.6 2.7-.4 1.1-.1 1.6 1 1.6.9 0 1.6-.6 1.6-1.3 0-1.6-2-4.6-2-3zM763.2 1556.9c-1.2 1.4-2.2 3.1-2.2 3.8 0 1.5 3 3.2 4.6 2.6.9-.3 3.9 6.6 3.9 9.1 0 .9 1.5 1.9 4.5 3 .8.3 2.3 1.1 3.2 1.8 1.4 1 2 .8 3.7-1.3 2.4-2.8 2.6-5.7.7-8.2-1.5-1.9-3.7-2.2-5.3-.6-1.6 1.6-3.3.2-3.3-2.6 0-1.4-.8-2.9-1.9-3.5-1.2-.6-1.7-1.7-1.4-2.8.3-1.2-.3-2.2-1.9-2.9-2-.9-2.7-.7-4.6 1.6zM811.1 1604.6c-3.7 2.6-1.9 7.3 3 8.1 2.8.4 3.2-1.7 1.1-5.9-1.8-3.5-2-3.6-4.1-2.2zM805.8 1613.4c-1.6 2.2-1.6 2.5-.2 3 2.2.9 3.4-.1 3.4-3 0-3-1-3-3.2 0zM820.1 1619.9c-.8.5-.9 1.1-.3 1.5.5.3 1.2-.1 1.6-.9.6-1.7.6-1.8-1.3-.6zM809.5 1643.9c-1 1.7 2.8 3 5.5 1.9 2-.7 2.2-1.1 1-1.8-1.9-1.3-5.7-1.3-6.5-.1zM847.4 1657.5c-.5 1.9-1.3 2.5-3.5 2.5-4.2 0-3.8 2.8 1 7.3 4.3 4.1 7.6 4.8 8.4 1.8.6-2.4 0-3.1-2.5-3.1-1.1 0-1.8-.7-1.8-2 0-2.2 1-2.6 2.6-1 1.3 1.3 4.6-2.1 3.6-3.6-.4-.6-2.2-1.9-3.9-2.8-3.2-1.6-3.3-1.6-3.9.9zM857.1 1661.6c0 1.1.3 1.4.6.6.3-.7.2-1.6-.1-1.9-.3-.4-.6.2-.5 1.3zM854 1764.8c0 1.5 2.2 3.1 3.6 2.5 1.8-.7.5-3.3-1.7-3.3-1 0-1.9.4-1.9.8zM886.5 1779.9l-3 .7 2.5.7c1.6.4 3 .1 4-.8 1.5-1.6 1.2-1.6-3.5-.6zM884.7 1823c-.9 3.5 2.8 5.9 6.7 4.4 1.3-.5 1.2-1-.6-3.5-2.5-3.4-5.3-3.8-6.1-.9zM958 1834.5c0 .8.7 1.5 1.5 1.5s1.5-.4 1.5-.9-.7-1.1-1.5-1.5c-.9-.3-1.5 0-1.5.9zM952 1835c0 .5.5 1 1.1 1 .5 0 .7-.5.4-1-.3-.6-.8-1-1.1-1-.2 0-.4.4-.4 1zM1002 1852.5c0 .3.7 1.4 1.6 2.3 1.5 1.4 1.6 1.4 1.3-.3-.4-1.7-2.9-3.5-2.9-2zM985 1868c0 .5.5 1 1.1 1 .5 0 .7-.5.4-1-.3-.6-.8-1-1.1-1-.2 0-.4.4-.4 1zM1029 1883.4c0 .8-.5 1.6-1.2 1.8-.6.2-.8 1-.4 1.6.5.9 1.1.9 2.2-.2 1.6-1.7 1.8-3.2.4-4.1-.5-.3-1 0-1 .9zM900.1 1893.6c0 1.1.3 1.4.6.6.3-.7.2-1.6-.1-1.9-.3-.4-.6.2-.5 1.3zM893.6 1946.3c.3 1 .9 1.5 1.2 1.2.3-.3 0-1.1-.7-1.8-1-.9-1.1-.8-.5.6zM1288.6 1986.5c-.6 1.7 1.7 3.1 3.4 2 .5-.3 1-1.3 1-2.1 0-1.9-3.6-1.8-4.4.1zM897 1989.1c0 .5.5.7 1 .4.6-.3 1-.8 1-1.1 0-.2-.4-.4-1-.4-.5 0-1 .5-1 1.1zM1131 1988.8c0 .5.7 1.3 1.6 1.6 1 .4 1.4.1 1.2-.6-.5-1.5-2.8-2.3-2.8-1zM1284.2 1991c0 1.9.2 2.7.5 1.7.2-.9.2-2.5 0-3.5-.3-.9-.5-.1-.5 1.8zM1141.1 1999.6c0 1.1.3 1.4.6.6.3-.7.2-1.6-.1-1.9-.3-.4-.6.2-.5 1.3zM1155.5 1999c-.3.5-.1 1 .4 1 .6 0 1.1-.5 1.1-1 0-.6-.2-1-.4-1-.3 0-.8.4-1.1 1zM1173 2002.5c0 .8.4 1.5 1 1.5.5 0 .7-.7.4-1.5-.4-.8-.8-1.5-1-1.5-.2 0-.4.7-.4 1.5zM1159.8 2004.7c.7.3 1.6.2 1.9-.1.4-.3-.2-.6-1.3-.5-1.1 0-1.4.3-.6.6zM905.5 2021c-.3.5-.1 1 .4 1 .6 0 1.1-.5 1.1-1 0-.6-.2-1-.4-1-.3 0-.8.4-1.1 1z"/></svg>